<?xml version="1.0" encoding="UTF-8"?>
<!-- Generator: Adobe Illustrator 28.1.0, SVG Export Plug-In . SVG Version: 6.00 Build 0)  -->
<svg xmlns="http://www.w3.org/2000/svg" xmlns:xlink="http://www.w3.org/1999/xlink" version="1.1" id="Layer_1" x="0px" y="0px" viewBox="0 0 300 300" style="enable-background:new 0 0 300 300;" xml:space="preserve">
<style type="text/css">
	.st0{fill:#C1D7C0;}
	.st1{fill:#EF7A6A;}
	.st2{fill:#BA9639;}
	.st3{fill:#005052;}
	.st4{fill:#FFFFFF;}
</style>
<g>
	<g>
		<path class="st2" d="M225.7,202.6c-0.8,3.4-1.2,6.8-1.4,10.3c-0.2,3,0,6-0.4,8.9c-0.6,5.2-2.4,10.3-5.1,14.7    c-1.3,2.2-2.8,4.2-4.7,5.9c-1.6,1.6-3.7,3.5-6.1,4c-1.9,0.4-4-0.3-5.3-1.7c-1.7-1.8-1.6-3.9-1.5-6.1c0.4-6.9-0.4-14-2.9-20.5    c-0.7-1.8-3.6-1-2.9,0.8c2.4,6.4,3.2,13.2,2.8,19.9c-0.1,2.7,0,5,1.7,7.3c1.5,1.9,3.7,3.2,6.2,3.4c5.2,0.6,10-4.3,12.9-8.1    c3.5-4.5,6-9.8,7.2-15.4c0.7-3.3,0.8-6.5,0.9-9.8c0.1-4.3,0.5-8.6,1.4-12.9C229,201.6,226.1,200.8,225.7,202.6L225.7,202.6z"></path>
	</g>
	<g>
		<path class="st2" d="M229.6,192.2c-1.8,3.2-3.1,6.8-4,10.4c-0.2,0.8,0.2,1.7,1,1.8c0.8,0.2,1.7-0.2,1.8-1c0.8-3.4,1.9-6.6,3.7-9.7    c0.4-0.7,0.2-1.6-0.5-2.1C231,191.3,230,191.5,229.6,192.2L229.6,192.2z"></path>
	</g>
	<g>
		<path class="st2" d="M188.6,204.2c-5.3-4.5-11.7-7.6-18.4-9.4c-4.3-1.1-8.8-1.7-13.3-2c-2.5-0.1-5-0.3-7.5,0.1    c-2.3,0.4-4,1.6-5.8,3c-6.2,4.8-13.7,7.9-21.6,7c-5.5-0.6-10.8-3.1-15.2-6.5c-2.4-1.8-4.8-3.9-6.6-6.3c-0.6-0.8-1.9-0.4-2.4,0.3    c-4.8,7.8-15,12.3-23.9,9.7c-5.6-1.7-9.8-5.9-12.1-11.2c-1.9-4.4-2.6-9.3-2.8-14.1c0-0.8-0.7-1.5-1.5-1.5c-3.2,0-6.3-0.6-9.5-1.9    c-5.6-2.1-9.6-6.7-9.7-12.9c-0.1-5.2,1.6-10.7,5.4-14.3c0.6-0.6,0.5-1.5,0-2.1c0.4,0.5,0,0-0.1-0.2c-0.3-0.4-0.6-0.8-0.8-1.3    c-0.9-1.5-1.4-2.7-1.9-4.3c-1.4-4.7-1-9.7,1.5-14c1.8-3.2,4.5-5.9,7.5-8.1c1-0.7,2-1.4,3-2.1c0.8-0.5,1.7-0.8,2.1-1.8    c0.1-0.2,0.1-0.5,0.2-0.7c1.1-3.5,2.8-6.8,5-9.9c4.1-5.6,10.1-9.2,17.1-9.5c0.6,0,1.3-0.4,1.4-1.1c0.6-4,2.1-7.8,3.9-11.2    c3.7-7,9.6-12.4,17.5-14c6.5-1.3,13.3,0.2,19.5,2.4c0.5,0.2,1.1,0,1.5-0.4c6.4-7.9,17.5-14.7,27.9-12c4.6,1.2,8.6,4.2,11,8.3    c0.4,0.7,1.4,1,2.1,0.5c3.6-2.3,7.4-3.9,11.4-5c7.1-2,15.3-2.1,21.2,2.9c4.1,3.4,7.3,8.7,8.3,13.9c0.2,0.8,1.1,1.2,1.8,1    c8-1.5,16,0.2,21.7,6.2c3.9,4.1,6.4,9.4,7.9,14.8c0.3,1.2,0.6,2.4,0.8,3.6c0.1,0.7,0.8,1.1,1.4,1.1c12.6,0.3,18.8,13.1,19.6,24.2    c0.3,3.8-0.9,7.6-2.8,10.8c-0.3,0.6-0.2,1.3,0.2,1.8c0.2,0.2,0.4,0.5,0.6,0.7c0.7,0.8,0.8,0.9,1.4,1.8c1.6,2.2,3,4.6,3.9,7.1    c1.2,3.1,1.9,6.4,1.6,9.8c-0.3,4-2.3,7.8-5,10.7c-1.9,2.1-4,3.8-6.4,5.3c-1.4,0.9-3.1,1.7-3.7,3.5c-0.4,1.1-0.2,2,0.3,3    c-0.1-0.3,0-0.1,0.1,0.3c0.2,0.7,0.3,1.3,0.4,2c0.1,0.4,0.1,0.4,0.1,1c0.1,0.6,0.1,1.2,0.1,1.7c0.1,1.2,0.1,2.4,0,3.6    c-0.1,2.6-0.6,5.2-1.6,7.7c-1.1,2.8-3.1,5.3-5.7,6.9c-3.8,2.3-8.4,2.5-12.7,2.1c-1.9-0.2-1.9,2.8,0,3c7.6,0.7,15.5-1.2,19.7-8.1    c2.9-4.8,3.6-10.8,3.1-16.3c-0.1-1.6-0.3-3.3-0.8-4.9c-0.1-0.3-0.4-0.7-0.3-1.1c0.1-0.6,0.8-0.9,1.2-1.2c2.4-1.4,4.7-3.1,6.7-5    c3.3-3.1,5.9-7.1,6.9-11.6c0.8-3.7,0.5-7.5-0.6-11.1c-1.4-4.8-4.1-9.5-7.5-13.1c0.1,0.6,0.2,1.2,0.2,1.8c2.1-3.5,3.3-7.5,3.2-11.6    c-0.1-3.3-0.8-6.8-1.8-9.9c-1.9-6.4-5.7-12.5-11.8-15.7c-2.8-1.5-5.9-2.2-9.1-2.3c0.5,0.4,1,0.7,1.4,1.1    c-0.6-3.7-1.9-7.4-3.5-10.8c-3.1-6.5-8.1-12.2-14.9-14.9c-5-1.9-10.5-1.9-15.7-0.9c0.6,0.3,1.2,0.7,1.8,1    c-1-5.1-3.9-10.2-7.6-13.8c-3.1-3.1-7.1-5.3-11.5-6c-7.4-1.3-15,0.8-21.7,3.9c-1.6,0.7-3.1,1.5-4.6,2.4c0.7,0.2,1.4,0.4,2.1,0.5    c-4.6-7.8-13.6-11.5-22.4-10c-6.8,1.1-13,5.1-17.9,9.7c-1.2,1.1-2.3,2.2-3.3,3.4c0.5-0.1,1-0.3,1.5-0.4    c-10.3-3.7-22.3-4.7-31.5,2.3c-5.9,4.4-9.7,11.1-11.9,18c-0.5,1.5-0.9,3-1.2,4.6c0.5-0.4,1-0.7,1.4-1.1c-6.5,0.3-12.5,3-17,7.7    c-3.2,3.4-5.6,7.6-7.3,11.9c-0.3,0.9-0.7,1.8-0.9,2.7c0.2-0.3,0.5-0.6,0.7-0.9c-7,4.2-13.9,10.2-15.4,18.6    c-0.9,4.8,0.1,9.7,2.4,14c0.5,1,1.1,1.9,1.8,2.8c0-0.7,0-1.4,0-2.1c-3.9,3.7-5.8,8.9-6.2,14.2c-0.3,3.8,0.4,7.8,2.5,11.1    c3.4,5,9.3,7.5,15.1,8.5c1.5,0.2,3,0.4,4.5,0.4c-0.5-0.5-1-1-1.5-1.5c0.3,8.2,2.2,17.2,8.3,23.1c5.9,5.8,14.8,7.4,22.6,4.7    c5.5-1.9,10.4-5.7,13.5-10.6c-0.8,0.1-1.6,0.2-2.4,0.3c1.6,2,3.5,3.8,5.4,5.4c4.2,3.5,9.1,6.3,14.5,7.6c7.1,1.8,14.4,0.6,20.8-2.7    c2-1,4-2.3,5.8-3.6c1.9-1.4,3.5-2.8,5.8-3.1c2.4-0.4,5.1-0.1,7.5,0.1c2.3,0.2,4.6,0.4,6.9,0.8c7.9,1.4,15.5,4.4,21.6,9.6    C187.9,207.5,190.1,205.4,188.6,204.2L188.6,204.2z"></path>
	</g>
	<g>
		<path class="st2" d="M188.6,204.2c-5.3-4.5-11.7-7.6-18.4-9.4c-4.3-1.1-8.8-1.7-13.3-2c-2.5-0.1-5-0.3-7.5,0.1    c-2.3,0.4-4,1.6-5.8,3c-6.2,4.8-13.7,7.9-21.6,7c-5.5-0.6-10.8-3.1-15.2-6.5c-2.4-1.8-4.8-3.9-6.6-6.3c-0.6-0.8-1.9-0.4-2.4,0.3    c-4.8,7.8-15,12.3-23.9,9.7c-5.6-1.7-9.8-5.9-12.1-11.2c-1.9-4.4-2.6-9.3-2.8-14.1c0-0.8-0.7-1.5-1.5-1.5c-3.2,0-6.3-0.6-9.5-1.9    c-5.6-2.1-9.6-6.7-9.7-12.9c-0.1-5.2,1.6-10.7,5.4-14.3c0.6-0.6,0.5-1.5,0-2.1c0.4,0.5,0,0-0.1-0.2c-0.3-0.4-0.6-0.8-0.8-1.3    c-0.9-1.5-1.4-2.7-1.9-4.3c-1.4-4.7-1-9.7,1.5-14c1.8-3.2,4.5-5.9,7.5-8.1c1-0.7,2-1.4,3-2.1c0.8-0.5,1.7-0.8,2.1-1.8    c0.1-0.2,0.1-0.5,0.2-0.7c1.1-3.5,2.8-6.8,5-9.9c4.1-5.6,10.1-9.2,17.1-9.5c0.6,0,1.3-0.4,1.4-1.1c0.6-4,2.1-7.8,3.9-11.2    c3.7-7,9.6-12.4,17.5-14c6.5-1.3,13.3,0.2,19.5,2.4c0.5,0.2,1.1,0,1.5-0.4c6.4-7.9,17.5-14.7,27.9-12c4.6,1.2,8.6,4.2,11,8.3    c0.4,0.7,1.4,1,2.1,0.5c3.6-2.3,7.4-3.9,11.4-5c7.1-2,15.3-2.1,21.2,2.9c4.1,3.4,7.3,8.7,8.3,13.9c0.2,0.8,1.1,1.2,1.8,1    c8-1.5,16,0.2,21.7,6.2c3.9,4.1,6.4,9.4,7.9,14.8c0.3,1.2,0.6,2.4,0.8,3.6c0.1,0.7,0.8,1.1,1.4,1.1c12.6,0.3,18.8,13.1,19.6,24.2    c0.3,3.8-0.9,7.6-2.8,10.8c-0.3,0.6-0.2,1.3,0.2,1.8c0.2,0.2,0.4,0.5,0.6,0.7c0.7,0.8,0.8,0.9,1.4,1.8c1.6,2.2,3,4.6,3.9,7.1    c1.2,3.1,1.9,6.4,1.6,9.8c-0.3,4-2.3,7.8-5,10.7c-1.9,2.1-4,3.8-6.4,5.3c-1.4,0.9-3.1,1.7-3.7,3.5c-0.4,1.1-0.2,2,0.3,3    c-0.1-0.3,0-0.1,0.1,0.3c0.2,0.7,0.3,1.3,0.4,2c0.1,0.4,0.1,0.4,0.1,1c0.1,0.6,0.1,1.2,0.1,1.7c0.1,1.2,0.1,2.4,0,3.6    c-0.1,2.6-0.6,5.2-1.6,7.7c-1.1,2.8-3.1,5.3-5.7,6.9c-3.8,2.3-8.4,2.5-12.7,2.1c-1.9-0.2-1.9,2.8,0,3c7.6,0.7,15.5-1.2,19.7-8.1    c2.9-4.8,3.6-10.8,3.1-16.3c-0.1-1.6-0.3-3.3-0.8-4.9c-0.1-0.3-0.4-0.7-0.3-1.1c0.1-0.6,0.8-0.9,1.2-1.2c2.4-1.4,4.7-3.1,6.7-5    c3.3-3.1,5.9-7.1,6.9-11.6c0.8-3.7,0.5-7.5-0.6-11.1c-1.4-4.8-4.1-9.5-7.5-13.1c0.1,0.6,0.2,1.2,0.2,1.8c2.1-3.5,3.3-7.5,3.2-11.6    c-0.1-3.3-0.8-6.8-1.8-9.9c-1.9-6.4-5.7-12.5-11.8-15.7c-2.8-1.5-5.9-2.2-9.1-2.3c0.5,0.4,1,0.7,1.4,1.1    c-0.6-3.7-1.9-7.4-3.5-10.8c-3.1-6.5-8.1-12.2-14.9-14.9c-5-1.9-10.5-1.9-15.7-0.9c0.6,0.3,1.2,0.7,1.8,1    c-1-5.1-3.9-10.2-7.6-13.8c-3.1-3.1-7.1-5.3-11.5-6c-7.4-1.3-15,0.8-21.7,3.9c-1.6,0.7-3.1,1.5-4.6,2.4c0.7,0.2,1.4,0.4,2.1,0.5    c-4.6-7.8-13.6-11.5-22.4-10c-6.8,1.1-13,5.1-17.9,9.7c-1.2,1.1-2.3,2.2-3.3,3.4c0.5-0.1,1-0.3,1.5-0.4    c-10.3-3.7-22.3-4.7-31.5,2.3c-5.9,4.4-9.7,11.1-11.9,18c-0.5,1.5-0.9,3-1.2,4.6c0.5-0.4,1-0.7,1.4-1.1c-6.5,0.3-12.5,3-17,7.7    c-3.2,3.4-5.6,7.6-7.3,11.9c-0.3,0.9-0.7,1.8-0.9,2.7c0.2-0.3,0.5-0.6,0.7-0.9c-7,4.2-13.9,10.2-15.4,18.6    c-0.9,4.8,0.1,9.7,2.4,14c0.5,1,1.1,1.9,1.8,2.8c0-0.7,0-1.4,0-2.1c-3.9,3.7-5.8,8.9-6.2,14.2c-0.3,3.8,0.4,7.8,2.5,11.1    c3.4,5,9.3,7.5,15.1,8.5c1.5,0.2,3,0.4,4.5,0.4c-0.5-0.5-1-1-1.5-1.5c0.3,8.2,2.2,17.2,8.3,23.1c5.9,5.8,14.8,7.4,22.6,4.7    c5.5-1.9,10.4-5.7,13.5-10.6c-0.8,0.1-1.6,0.2-2.4,0.3c1.6,2,3.5,3.8,5.4,5.4c4.2,3.5,9.1,6.3,14.5,7.6c7.1,1.8,14.4,0.6,20.8-2.7    c2-1,4-2.3,5.8-3.6c1.9-1.4,3.5-2.8,5.8-3.1c2.4-0.4,5.1-0.1,7.5,0.1c2.3,0.2,4.6,0.4,6.9,0.8c7.9,1.4,15.5,4.4,21.6,9.6    C187.9,207.5,190.1,205.4,188.6,204.2L188.6,204.2z"></path>
	</g>
	<g>
		<path class="st2" d="M66.8,185.1c-1.1-3.7-1.9-7.7-1.7-11.6c0.2-2.7-1.7-5-4.4-5.4c-2.3-0.3-4.6-0.6-6.9-1.2    c-1.9-0.5-4.8-1.1-6.1-2.8c-0.5-0.6-1.3-1-2.1-0.5c-0.6,0.4-1,1.4-0.5,2.1c2.7,3.5,8.1,4.4,12.3,5.1c1.9,0.3,5,0,4.8,2.7    c-0.1,2.6,0.2,5.2,0.6,7.8c0.3,1.6,0.7,3.2,1.1,4.7C64.4,187.7,67.3,186.9,66.8,185.1L66.8,185.1z"></path>
	</g>
	<g>
		<path class="st2" d="M90.1,76.4c5.2-5.9,13.6-9.7,21.3-7c1.8,0.6,2.6-2.3,0.8-2.9c-8.6-3-18.4,1.1-24.2,7.8    C86.8,75.7,88.9,77.8,90.1,76.4L90.1,76.4z"></path>
	</g>
	<g>
		<path class="st2" d="M227.4,202.4c3.7,1,8.3,0.6,11.4-1.7c1.6-1.1,2.8-2.6,3.6-4.4c0.3-0.7,0.2-1.6-0.5-2.1    c-0.6-0.4-1.7-0.2-2.1,0.5c-0.6,1.4-1.3,2.3-2.5,3.3c-0.2,0.2,0.1,0-0.2,0.1c-0.1,0.1-0.3,0.2-0.4,0.3c-0.3,0.2-0.6,0.3-0.8,0.5    c-0.1,0.1-0.2,0.1-0.4,0.2c-0.2,0.1,0,0,0,0c-0.1,0-0.2,0.1-0.2,0.1c-0.3,0.1-0.6,0.2-0.9,0.3c-0.2,0.1-0.5,0.1-0.7,0.2    c-0.1,0-0.3,0.1-0.4,0.1c-0.1,0-0.5,0.1-0.1,0c-0.5,0.1-1,0.1-1.6,0.1c-0.5,0-0.9,0-1.4,0c-0.2,0-0.4,0-0.6-0.1    c-0.1,0-0.2,0-0.2,0c-0.4,0,0.3,0.1,0,0c-0.4-0.1-0.8-0.1-1.2-0.2C226.4,199,225.6,201.9,227.4,202.4L227.4,202.4z"></path>
	</g>
	<g>
		<path class="st2" d="M66.1,191.1c0.4,0.7,0.9,1.4,1.4,2c1.2,1.4,2.7,2.6,4.3,3.4c1.3,0.7,2.6,1.1,4,1.4c0.8,0.2,1.7-0.2,1.8-1    c0.2-0.7-0.2-1.7-1-1.8c-0.6-0.1-1.2-0.3-1.7-0.5c-0.3-0.1-0.5-0.2-0.8-0.3c-0.1,0-0.1,0-0.2-0.1c0,0,0.2,0.1,0.1,0    c-0.1-0.1-0.3-0.1-0.4-0.2c-0.4-0.2-0.9-0.5-1.3-0.7c-0.2-0.1-0.4-0.3-0.6-0.4c-0.1-0.1-0.2-0.1-0.3-0.2c-0.3-0.2,0.1,0.1-0.1,0    c-0.6-0.5-1.1-1-1.7-1.6c-0.1-0.1-0.2-0.2-0.3-0.4c0-0.1-0.1-0.1-0.1-0.2c-0.2-0.2,0.2,0.3,0,0.1c-0.1-0.2-0.3-0.4-0.4-0.6    c-0.1-0.2-0.3-0.4-0.4-0.6c-0.4-0.7-1.4-1-2.1-0.5C66,189.5,65.8,190.3,66.1,191.1L66.1,191.1z"></path>
	</g>
	<g>
		<path class="st2" d="M111.6,161.3c9.4,1.9,18.8,3.9,28.2,5.8c14.9,3.1,29.7,6.1,44.6,9.2c3.4,0.7,6.8,1.4,10.1,2.1    c1.9,0.4,2.7-2.5,0.8-2.9c-9.4-1.9-18.8-3.9-28.2-5.8c-14.9-3.1-29.7-6.1-44.6-9.2c-3.4-0.7-6.8-1.4-10.1-2.1    C110.5,158,109.7,160.9,111.6,161.3L111.6,161.3z"></path>
	</g>
	<g>
		<path class="st2" d="M208.2,151.6c-3.2,0.1-6.3,0.3-9.5,0.4c-7.6,0.3-15.2,0.7-22.8,1c-9.2,0.4-18.4,0.8-27.6,1.2    c-7.9,0.4-15.9,0.7-23.8,1.1c-3.9,0.2-7.8,0.2-11.6,0.5c-0.1,0-0.1,0-0.2,0c-1.9,0.1-1.9,3.1,0,3c3.2-0.1,6.3-0.3,9.5-0.4    c7.6-0.3,15.2-0.7,22.8-1c9.2-0.4,18.4-0.8,27.6-1.2c7.9-0.4,15.9-0.7,23.8-1.1c3.9-0.2,7.8-0.2,11.6-0.5c0.1,0,0.1,0,0.2,0    C210.1,154.6,210.1,151.6,208.2,151.6L208.2,151.6z"></path>
	</g>
	<g>
		<path class="st2" d="M158.5,134.6c5.7,1.9,11.3,3.7,17,5.6c8.9,3,17.9,5.9,26.8,8.9c2.1,0.7,4.2,1.4,6.2,2.1    c1.8,0.6,2.6-2.3,0.8-2.9c-5.7-1.9-11.3-3.7-17-5.6c-8.9-3-17.9-5.9-26.8-8.9c-2.1-0.7-4.2-1.4-6.2-2.1    C157.4,131.1,156.7,134,158.5,134.6L158.5,134.6z"></path>
	</g>
	<g>
		<path class="st2" d="M177,104.9c-6,5-12.1,10.1-18.1,15.1c-0.8,0.7-1.7,1.4-2.5,2.1c-1.5,1.2,0.6,3.4,2.1,2.1    c6-5,12.1-10.1,18.1-15.1c0.8-0.7,1.7-1.4,2.5-2.1C180.6,105.8,178.5,103.7,177,104.9L177,104.9z"></path>
	</g>
	<g>
		<path class="st2" d="M128.9,86.4c5.2,1.4,10.5,2.7,15.7,4.1c8.3,2.2,16.6,4.3,24.9,6.5c1.9,0.5,3.8,1,5.8,1.5    c1.9,0.5,2.7-2.4,0.8-2.9c-5.2-1.4-10.5-2.7-15.7-4.1c-8.3-2.2-16.6-4.3-24.9-6.5c-1.9-0.5-3.8-1-5.8-1.5    C127.8,83,127,85.9,128.9,86.4L128.9,86.4z"></path>
	</g>
	<g>
		<path class="st2" d="M191.4,99.6c0,2.9-1.8,5.7-4.7,6.7c-2.9,1-6.1,0.2-8.1-2.2c-1.9-2.3-2.1-5.6-0.5-8.1c1.5-2.5,4.5-3.9,7.4-3.4    C188.9,93.2,191.4,96.2,191.4,99.6c0,1.9,3,1.9,3,0c-0.1-4.3-2.7-8-6.6-9.5c-3.9-1.5-8.6-0.2-11.3,3c-2.7,3.3-3.1,8-0.9,11.7    c2.2,3.7,6.5,5.5,10.7,4.8c4.8-0.9,8.1-5.2,8.2-10C194.4,97.7,191.4,97.7,191.4,99.6z"></path>
	</g>
	<g>
		<path class="st2" d="M157.7,129.5c0,2.9-1.8,5.7-4.7,6.7c-2.9,1-6.1,0.2-8.1-2.2c-1.9-2.3-2.1-5.6-0.5-8.1    c1.5-2.5,4.5-3.9,7.4-3.4C155.2,123.1,157.7,126.1,157.7,129.5c0,1.9,3,1.9,3,0c-0.1-4.3-2.7-8-6.6-9.5c-3.9-1.5-8.6-0.2-11.3,3    c-2.7,3.3-3.1,8-0.9,11.7c2.2,3.7,6.5,5.5,10.7,4.8c4.8-0.9,8.1-5.2,8.2-10C160.7,127.6,157.7,127.6,157.7,129.5z"></path>
	</g>
	<g>
		<path class="st2" d="M109.6,109.4c0,2.9-1.8,5.7-4.7,6.7c-2.9,1-6.1,0.2-8.1-2.2c-1.9-2.3-2.1-5.6-0.5-8.1    c1.5-2.5,4.5-3.9,7.4-3.4C107.1,103,109.6,105.9,109.6,109.4c0,1.9,3,1.9,3,0c-0.1-4.3-2.7-8-6.6-9.5c-3.9-1.5-8.6-0.2-11.3,3    c-2.7,3.3-3.1,8-0.9,11.7c2.2,3.7,6.5,5.5,10.7,4.8c4.8-0.9,8.1-5.2,8.2-10C112.6,107.4,109.6,107.4,109.6,109.4z"></path>
	</g>
	<g>
		<path class="st2" d="M224.7,152.6c0,2.9-1.8,5.7-4.7,6.7c-2.9,1-6.1,0.2-8.1-2.2c-1.9-2.3-2.1-5.6-0.5-8.1    c1.5-2.5,4.5-3.9,7.4-3.4C222.2,146.2,224.6,149.2,224.7,152.6c0,1.9,3,1.9,3,0c-0.1-4.3-2.7-8-6.6-9.5c-3.9-1.5-8.6-0.2-11.3,3    c-2.7,3.3-3.1,8-0.9,11.7c2.2,3.7,6.5,5.5,10.7,4.8c4.8-0.9,8.1-5.2,8.2-10C227.7,150.7,224.7,150.7,224.7,152.6z"></path>
	</g>
	<g>
		<path class="st2" d="M210.9,178.8c0,2.9-1.8,5.7-4.7,6.7c-2.9,1-6.1,0.2-8.1-2.2c-1.9-2.3-2.1-5.6-0.5-8.1    c1.5-2.5,4.5-3.9,7.4-3.4C208.4,172.3,210.9,175.3,210.9,178.8c0,1.9,3,1.9,3,0c-0.1-4.3-2.7-8-6.6-9.5c-3.9-1.5-8.6-0.2-11.3,3    c-2.7,3.3-3.1,8-0.9,11.7c2.2,3.7,6.5,5.5,10.7,4.8c4.8-0.9,8.1-5.2,8.2-10C213.9,176.8,210.9,176.8,210.9,178.8z"></path>
	</g>
	<g>
		<path class="st2" d="M110.7,158.1c0,2.9-1.8,5.7-4.7,6.7c-2.9,1-6.1,0.2-8.1-2.2c-1.9-2.3-2.1-5.6-0.5-8.1    c1.5-2.5,4.5-3.9,7.4-3.4C108.2,151.7,110.7,154.7,110.7,158.1c0,1.9,3,1.9,3,0c-0.1-4.3-2.7-8-6.6-9.5c-3.9-1.5-8.6-0.2-11.3,3    c-2.7,3.3-3.1,8-0.9,11.7c2.2,3.7,6.5,5.5,10.7,4.8c4.8-0.9,8.1-5.2,8.2-10C113.7,156.2,110.7,156.2,110.7,158.1z"></path>
	</g>
	<g>
		<path class="st2" d="M175.3,99.6c-7.2,0.9-14.4,1.7-21.6,2.6c-11.5,1.4-22.9,2.8-34.4,4.2c-2.6,0.3-5.3,0.6-7.9,1    c-1.9,0.2-1.9,3.2,0,3c7.2-0.9,14.4-1.7,21.6-2.6c11.5-1.4,22.9-2.8,34.4-4.2c2.6-0.3,5.3-0.6,7.9-1    C177.2,102.3,177.3,99.3,175.3,99.6L175.3,99.6z"></path>
	</g>
	<g>
		<path class="st2" d="M106.5,149.6c0.7-4.9,1.5-9.7,2.2-14.6c0.1-0.7,0.2-1.4,0.3-2.1c0.1-0.8-0.2-1.6-1-1.8    c-0.7-0.2-1.7,0.2-1.8,1c-0.7,4.9-1.5,9.7-2.2,14.6c-0.1,0.7-0.2,1.4-0.3,2.1c-0.1,0.8,0.2,1.6,1,1.8    C105.4,150.8,106.4,150.4,106.5,149.6L106.5,149.6z"></path>
	</g>
	<g>
		<path class="st2" d="M105,133.5c1.3-0.9,2.6-1.9,3.8-2.8c-0.7-0.2-1.4-0.4-2.1-0.5c0.9,1.3,1.9,2.6,2.8,3.8    c0.2,0.3,0.5,0.6,0.9,0.7c0.4,0.1,0.8,0.1,1.2-0.2c0.6-0.4,1-1.4,0.5-2.1c-0.9-1.3-1.9-2.6-2.8-3.8c-0.2-0.3-0.5-0.6-0.9-0.7    c-0.4-0.1-0.8-0.1-1.2,0.2c-1.3,0.9-2.6,1.9-3.8,2.8c-0.3,0.2-0.6,0.5-0.7,0.9c-0.1,0.4-0.1,0.8,0.2,1.2    C103.3,133.6,104.3,134,105,133.5L105,133.5z"></path>
	</g>
	<g>
		<path class="st2" d="M159.6,129c5.1-0.8,10.2-1.6,15.3-2.4c8.1-1.3,16.3-2.6,24.4-3.9c1.9-0.3,3.8-0.6,5.7-0.9    c1.9-0.3,1.1-3.2-0.8-2.9c-5.1,0.8-10.2,1.6-15.3,2.4c-8.1,1.3-16.3,2.6-24.4,3.9c-1.9,0.3-3.8,0.6-5.7,0.9    C156.9,126.4,157.7,129.3,159.6,129L159.6,129z"></path>
	</g>
	<g>
		<path class="st2" d="M202.8,118.1c1.3,1,2.5,1.9,3.8,2.9c0-0.7,0-1.4,0-2.1c-1,1.3-1.9,2.5-2.9,3.8c-0.3,0.3-0.4,0.6-0.4,1.1    c0,0.4,0.2,0.8,0.4,1.1c0.5,0.5,1.6,0.7,2.1,0c1-1.3,1.9-2.5,2.9-3.8c0.2-0.3,0.5-0.6,0.4-1.1c0-0.4-0.1-0.8-0.4-1.1    c-1.3-1-2.5-1.9-3.8-2.9c-0.3-0.3-0.6-0.4-1.1-0.4c-0.4,0-0.8,0.2-1.1,0.4C202.3,116.6,202.1,117.6,202.8,118.1L202.8,118.1z"></path>
	</g>
	<g>
		<path class="st2" d="M129.8,87.4c-0.8-1.4-1.5-2.8-2.3-4.2c-0.2,0.7-0.4,1.4-0.5,2.1c1.4-0.8,2.8-1.5,4.2-2.3    c0.7-0.4,1-1.4,0.5-2.1c-0.5-0.7-1.3-0.9-2.1-0.5c-1.4,0.8-2.8,1.5-4.2,2.3c-0.7,0.4-0.9,1.4-0.5,2.1c0.8,1.4,1.5,2.8,2.3,4.2    c0.4,0.7,1.4,1,2.1,0.5C130,89,130.2,88.2,129.8,87.4L129.8,87.4z"></path>
	</g>
</g>
</svg>
