<?xml version="1.0" encoding="UTF-8"?>
<svg version="1.1" xmlns="http://www.w3.org/2000/svg" width="512" height="512">
<path d="M0 0 C1.01707031 -0.02578125 2.03414063 -0.0515625 3.08203125 -0.078125 C8.81510334 0.52763356 12.81638399 3.50490026 16.95620728 7.34028625 C18.25170942 8.53934569 18.25170942 8.53934569 19.57338333 9.76262856 C23.73453553 13.72202764 27.82782594 17.74286312 31.88818359 21.80541992 C33.25598969 23.1681881 33.25598969 23.1681881 34.65142822 24.55848694 C37.12036248 27.01869729 39.58615055 29.4820364 42.0510478 31.94629073 C43.59535024 33.48987713 45.14036475 35.03274717 46.68562698 36.5753727 C52.08736559 41.96790328 57.48655994 47.36296589 62.88330078 52.76049805 C67.8991621 57.77696208 72.92059879 62.78779732 77.94462717 67.79608077 C82.27624717 72.11461262 86.60399021 76.43700396 90.92875159 80.76240426 C93.5041258 83.33803266 96.08100751 85.91210574 98.66181564 88.48229027 C101.53456196 91.34352834 104.39920313 94.21275138 107.26318359 97.08276367 C108.11206146 97.92602203 108.96093933 98.7692804 109.83554077 99.63809204 C116.40051937 106.23828486 121.29076267 111.34115166 121.4375 121.0625 C121.46328125 122.07957031 121.4890625 123.09664063 121.515625 124.14453125 C120.182162 136.76480611 105.53334589 147.04616405 96.96655273 155.58447266 C95.76305495 156.7876877 94.55977863 157.99112432 93.35670471 159.19476318 C90.11990565 162.43184683 86.88005296 165.66585797 83.63960528 168.89928865 C80.24255398 172.29004962 76.84837185 175.68368028 73.45387268 179.07699585 C67.03880698 185.48896488 60.62119854 191.89838255 54.20265204 198.306867 C46.88983058 205.60847541 39.57987965 212.91295477 32.27015769 220.21766591 C17.24577667 235.23162027 2.21782937 250.24200063 -12.8125 265.25 C-11.42097034 268.39152507 -9.80279991 270.50091805 -7.36524963 272.9108429 C-6.65163269 273.62142853 -5.93801575 274.33201416 -5.20277405 275.06413269 C-4.41986496 275.83356705 -3.63695587 276.6030014 -2.83032227 277.39575195 C-2.00579559 278.21414551 -1.18126892 279.03253906 -0.33175659 279.87573242 C1.45966793 281.65284726 3.25331961 283.42771915 5.04891777 285.20061684 C7.89071742 288.00766495 10.72564366 290.82153937 13.55812073 293.63798523 C21.61309048 301.64470876 29.67970928 309.63963453 37.75512695 317.62573242 C42.21707903 322.03848609 46.67173403 326.45847835 51.118774 330.88626069 C53.47018595 333.22676266 55.82649598 335.56198222 58.18978691 337.89049721 C60.82769594 340.4899377 63.45301993 343.10150039 66.07592773 345.71606445 C66.85681259 346.47942612 67.63769745 347.24278778 68.44224548 348.02928162 C74.89618402 354.50671706 77.35668028 360.69853448 78.9050293 369.56518555 C79.12514175 370.76675545 79.12514175 370.76675545 79.34970093 371.99259949 C79.8289734 374.62249956 80.2958377 377.25441597 80.76171875 379.88671875 C81.09329609 381.7313462 81.42531948 383.57589351 81.75776672 385.42036438 C82.45164996 389.28178337 83.13922109 393.14426108 83.82250977 397.00756836 C84.69392852 401.93090179 85.58229094 406.85099802 86.47566509 411.7703886 C87.165134 415.57918607 87.84474852 419.38969363 88.52158546 423.20075417 C88.84493951 425.01398979 89.17142962 426.82666932 89.50125694 428.63873863 C94.13744076 454.18635482 94.13744076 454.18635482 90.5625 461.1875 C86.50363801 466.42129573 82.71154729 469.49347973 76.1875 471.25 C65.80459851 471.55798282 55.14718212 469.03491428 44.953125 467.23046875 C43.2221024 466.92739044 41.49104292 466.62452276 39.75994873 466.32185364 C36.15541752 465.68992 32.55181451 465.05297258 28.94873047 464.4128418 C24.35262839 463.59707371 19.75381547 462.7978629 15.15408707 462.00283337 C11.58712848 461.38373669 8.02212397 460.75391593 4.45757294 460.12111855 C2.76311281 459.82199122 1.06799311 459.52657348 -0.62779999 459.23509789 C-3.00237242 458.8256968 -5.37382713 458.40133929 -7.74511719 457.97338867 C-8.43104446 457.85843048 -9.11697174 457.74347229 -9.82368469 457.62503052 C-20.10909771 455.72120438 -26.575166 451.2216956 -33.82055664 443.80957031 C-34.67043152 442.96042557 -35.5203064 442.11128082 -36.39593506 441.23640442 C-38.70411415 438.92535636 -41.00087664 436.60366737 -43.29287648 434.27659321 C-45.69811923 431.83991189 -48.11770569 429.41755605 -50.53575134 426.99359131 C-55.10360653 422.4102488 -59.65857517 417.81432145 -64.20895714 413.21363807 C-69.39377808 407.97276383 -74.59294983 402.74622534 -79.79332554 397.52079248 C-90.48233378 386.77964202 -101.1529973 376.02043778 -111.8125 365.25 C-116.32624874 369.02943867 -120.63244762 372.92802746 -124.7769928 377.10769653 C-125.61265885 377.94419764 -125.61265885 377.94419764 -126.46520704 378.79759777 C-128.31131093 380.64671155 -130.15380885 382.49937541 -131.99633789 384.35205078 C-133.32728814 385.68656117 -134.65847636 387.02083427 -135.98988342 388.35488892 C-138.84659923 391.21813351 -141.70179911 394.08287815 -144.55586433 396.9487648 C-149.07054615 401.48179689 -153.58962308 406.0104301 -158.10948181 410.53829956 C-170.95801838 423.41094597 -183.80061908 436.28950484 -196.63891602 449.17236328 C-203.73698246 456.29498926 -210.83864718 463.4140079 -217.94417948 470.52918613 C-222.43668579 475.02822779 -226.92465122 479.53173539 -231.40929234 484.03861642 C-234.20011248 486.84117716 -236.99511515 489.63953722 -239.79131126 492.43673325 C-241.08544915 493.73301602 -242.37786801 495.03101763 -243.66841888 496.33087158 C-245.43266775 498.10734314 -247.20302317 499.87750312 -248.97499084 501.64627075 C-249.48190793 502.15969564 -249.98882501 502.67312052 -250.51110321 503.20210373 C-256.36094914 509.01105179 -261.31997397 512.37464112 -269.625 512.5 C-270.64207031 512.52578125 -271.65914063 512.5515625 -272.70703125 512.578125 C-278.44010334 511.97236644 -282.44138399 508.99509974 -286.58120728 505.15971375 C-287.87670942 503.96065431 -287.87670942 503.96065431 -289.19838333 502.73737144 C-293.35953553 498.77797236 -297.45282594 494.75713688 -301.51318359 490.69458008 C-302.42505432 489.78606796 -303.33692505 488.87755585 -304.27642822 487.94151306 C-306.74536248 485.48130271 -309.21115055 483.0179636 -311.6760478 480.55370927 C-313.22035024 479.01012287 -314.76536475 477.46725283 -316.31062698 475.9246273 C-321.71236559 470.53209672 -327.11155994 465.13703411 -332.50830078 459.73950195 C-337.5241621 454.72303792 -342.54559879 449.71220268 -347.56962717 444.70391923 C-351.90124717 440.38538738 -356.22899021 436.06299604 -360.55375159 431.73759574 C-363.1291258 429.16196734 -365.70600751 426.58789426 -368.28681564 424.01770973 C-371.15956196 421.15647166 -374.02420313 418.28724862 -376.88818359 415.41723633 C-377.73706146 414.57397797 -378.58593933 413.7307196 -379.46054077 412.86190796 C-386.02551937 406.26171514 -390.91576267 401.15884834 -391.0625 391.4375 C-391.08828125 390.42042969 -391.1140625 389.40335937 -391.140625 388.35546875 C-390.00723084 377.62870259 -379.29473648 369.65461356 -372.125 362.375 C-371.32376709 361.5540686 -371.32376709 361.5540686 -370.50634766 360.71655273 C-364.68816805 354.88669003 -359.50464099 351.14105416 -351.0625 350.9375 C-342.71113827 351.04791464 -339.1876357 353.77866224 -333.375 359.5 C-332.1798934 360.74272944 -330.98967406 361.99027087 -329.8125 363.25 C-328.70384015 362.33877273 -327.60077781 361.42073341 -326.5 360.5 C-325.88511719 359.98953125 -325.27023437 359.4790625 -324.63671875 358.953125 C-322.75317671 357.19461466 -321.29676344 355.35080364 -319.8125 353.25 C-320.35519531 352.73050781 -320.89789063 352.21101563 -321.45703125 351.67578125 C-327.62818315 345.66029805 -331.82211155 340.86347266 -332.125 332 C-331.84844929 317.87286779 -316.65633338 306.90720846 -307.35473633 297.60693359 C-305.61184646 295.86182975 -303.87715914 294.10882703 -302.14257812 292.35546875 C-301.0187183 291.22867859 -299.89438618 290.10235927 -298.76953125 288.9765625 C-298.26001419 288.45985992 -297.75049713 287.94315735 -297.22554016 287.41079712 C-291.62102401 281.84139648 -286.63643406 278.15219287 -278.625 277.9375 C-271.2324909 278.02527385 -266.53211363 280.36555489 -261.3125 285.5 C-260.4875 286.4075 -259.6625 287.315 -258.8125 288.25 C-254.52011377 286.59908222 -251.9331085 283.51245434 -248.8125 280.25 C-250.14234963 277.32816693 -251.63880723 275.16552242 -253.8125 272.8125 C-258.28253774 267.64470027 -259.03510985 263.67589793 -259.17578125 256.9453125 C-258.24114057 250.01088167 -254.89849382 245.77965317 -250.125 241 C-246.05761701 237.32013463 -246.05761701 237.32013463 -244.8125 232.25 C-246.47735108 230.14215208 -246.47735108 230.14215208 -248.7583313 227.9568634 C-249.63314651 227.08081451 -250.50796173 226.20476562 -251.4092865 225.3021698 C-252.39138097 224.333884 -253.37360902 223.36573366 -254.35595703 222.39770508 C-255.38134867 221.37643248 -256.40606741 220.35448388 -257.43016052 219.33190918 C-259.64069477 217.12747969 -261.85586373 214.92785262 -264.07468033 212.73176003 C-267.58741303 209.25478576 -271.0892415 205.76696774 -274.58956909 202.2775116 C-281.3976921 195.49355289 -288.21700537 188.72090543 -295.03739166 181.94927979 C-303.6981255 173.34929777 -312.35341153 164.74385483 -320.99950874 156.12915725 C-324.47528453 152.66672214 -327.95623468 149.2096018 -331.44142461 145.75664389 C-333.61799013 143.59828701 -335.79035959 141.43574263 -337.96170235 139.27213287 C-338.96362722 138.27551426 -339.96727797 137.28062699 -340.97284889 136.2876873 C-347.96324627 129.38275214 -354.6799735 122.63029543 -358.625 113.5 C-359.02332031 112.59765625 -359.42164063 111.6953125 -359.83203125 110.765625 C-363.6694465 100.91982651 -363.19019065 88.22686888 -358.9921875 78.5859375 C-358.60289062 77.81507812 -358.21359375 77.04421875 -357.8125 76.25 C-357.48507812 75.58226563 -357.15765625 74.91453125 -356.8203125 74.2265625 C-350.44464391 62.8248194 -339.07065944 53.32157704 -329.88647461 44.13867188 C-328.11087151 42.36085388 -326.34347725 40.57512494 -324.57617188 38.7890625 C-311.67651248 25.82551831 -299.98886508 16.44176365 -280.8125 16.25 C-260.04730609 18.23815686 -247.66742587 32.22466378 -233.58935547 46.35961914 C-232.61273864 47.33651894 -231.63589979 48.31319683 -230.65885925 49.28967285 C-228.03952399 51.9087244 -225.42325589 54.5308196 -222.80758047 57.15352559 C-220.06145304 59.90595821 -217.31244155 62.65550747 -214.56375122 65.40538025 C-209.37363042 70.59859343 -204.18606119 75.79434749 -198.99943268 80.99104828 C-193.08837306 86.91333448 -187.17443058 92.83273837 -181.26025939 98.751917 C-169.10782438 110.91476894 -156.95896528 123.08118643 -144.8125 135.25 C-144.2661792 135.03846786 -143.7198584 134.82693573 -143.15698242 134.60899353 C-142.07960815 134.19720604 -142.07960815 134.19720604 -140.98046875 133.77709961 C-140.26914795 133.50369247 -139.55782715 133.23028534 -138.82495117 132.94859314 C-133.39809176 131.06473787 -127.7528936 131.50762582 -122.5625 133.875 C-118.65452698 136.08316362 -115.81909004 138.94275096 -112.8125 142.25 C-108.52011377 140.59908222 -105.9331085 137.51245434 -102.8125 134.25 C-104.47693426 130.59304587 -106.66378718 128.05023806 -109.375 125.12890625 C-112.32679363 121.27071947 -113.10460957 117.60425018 -113.125 112.8125 C-113.14175781 111.90628906 -113.15851563 111.00007813 -113.17578125 110.06640625 C-111.60744165 97.90755842 -97.42082466 87.59292019 -89.1472168 79.23461914 C-87.96213426 78.03288439 -86.78245613 76.82579691 -85.6081543 75.61352539 C-69.89996036 59.40375092 -69.89996036 59.40375092 -59.125 58.75 C-51.69549014 59.25833488 -46.90195842 62.70680367 -41.609375 67.62890625 C-39.70192078 69.42879847 -39.70192078 69.42879847 -36.8125 71.25 C-33.8425 68.28 -30.8725 65.31 -27.8125 62.25 C-28.699375 61.21875 -29.58625 60.1875 -30.5 59.125 C-31.04398437 58.48820312 -31.58796875 57.85140625 -32.1484375 57.1953125 C-33.19024854 55.97742072 -34.23644341 54.76325016 -35.2890625 53.5546875 C-39.09054475 49.13074032 -39.97551262 46.200414 -40.0625 40.4375 C-40.08828125 39.42042969 -40.1140625 38.40335938 -40.140625 37.35546875 C-39.00723084 26.62870259 -28.29473648 18.65461356 -21.125 11.375 C-20.59084473 10.8277124 -20.05668945 10.2804248 -19.50634766 9.71655273 C-13.65413509 3.85258874 -8.49355984 0.12820468 0 0 Z M-0.8125 35.25 C-2.19482443 36.87626404 -3.53187515 38.5425002 -4.8125 40.25 C-3.89585571 41.12736816 -3.89585571 41.12736816 -2.96069336 42.02246094 C-0.70133643 44.19665268 1.5465865 46.38186198 3.78735352 48.57519531 C4.75980105 49.52248355 5.73668665 50.46523779 6.71801758 51.40332031 C8.12696317 52.75168908 9.51884373 54.11781893 10.91015625 55.484375 C11.75328369 56.30131836 12.59641113 57.11826172 13.46508789 57.95996094 C15.1875 60.25 15.1875 60.25 15.08514404 62.07688904 C13.81767094 65.14532102 11.88195119 66.95298304 9.54760742 69.30981445 C9.06620804 69.79968338 8.58480865 70.28955231 8.08882141 70.79426575 C6.49796078 72.40849489 4.89616778 74.01131183 3.29296875 75.61328125 C2.18267178 76.73067789 1.07267524 77.84837313 -0.03703308 78.96635437 C-2.36302483 81.30578915 -4.69486827 83.63920298 -7.03051758 85.96899414 C-10.0270508 88.95961966 -13.00490189 91.96811967 -15.97821522 94.98180866 C-18.26439145 97.29378927 -20.56189312 99.5942478 -22.86282921 101.89153099 C-23.96602175 102.99642038 -25.06521877 104.10531384 -26.16034889 105.21819496 C-27.69010639 106.77000722 -29.23480799 108.30521158 -30.78442383 109.8371582 C-31.66076981 110.71555862 -32.53711578 111.59395905 -33.4400177 112.49897766 C-35.8125 114.25 -35.8125 114.25 -37.98936462 114.14190674 C-40.61417502 112.85780786 -42.31688474 111.07998584 -44.359375 108.99609375 C-45.62587891 107.71508789 -45.62587891 107.71508789 -46.91796875 106.40820312 C-47.79066406 105.51037109 -48.66335938 104.61253906 -49.5625 103.6875 C-50.45066406 102.78580078 -51.33882813 101.88410156 -52.25390625 100.95507812 C-54.44698315 98.72662902 -56.63276044 96.49148407 -58.8125 94.25 C-63.51591126 98.17288258 -67.95523951 102.26018696 -72.25 106.625 C-72.79076172 107.17027344 -73.33152344 107.71554688 -73.88867188 108.27734375 C-75.19896723 109.59923464 -76.50608284 110.92427618 -77.8125 112.25 C-71.98621096 119.40801225 -65.3742015 125.77591766 -58.8125 132.25 C-60.28372616 135.65353022 -62.18192513 137.86255749 -64.80322266 140.46777344 C-65.62392242 141.28832214 -66.44462219 142.10887085 -67.29019165 142.95428467 C-68.17669403 143.83046448 -69.06319641 144.70664429 -69.9765625 145.609375 C-70.88377045 146.51375305 -71.79097839 147.4181311 -72.72567749 148.34991455 C-75.13134419 150.74796458 -77.54295736 153.13994618 -79.95587158 155.53070068 C-82.41952344 157.97385171 -84.87748577 160.42271206 -87.3359375 162.87109375 C-92.15623573 167.66933788 -96.98219843 172.46182732 -101.8125 177.25 C-100.16236235 181.50556298 -96.98305778 184.34579796 -93.80224609 187.48730469 C-93.1874791 188.10236374 -92.5727121 188.71742279 -91.9393158 189.35112 C-89.90956176 191.37948258 -87.87281925 193.40067226 -85.8359375 195.421875 C-84.42588475 196.82819697 -83.01627342 198.23496164 -81.60708618 199.64215088 C-77.89937958 203.34222618 -74.18570576 207.03625567 -70.47076416 210.72906494 C-66.68001741 214.49934253 -62.89493543 218.27529761 -59.109375 222.05078125 C-51.68262159 229.4560936 -44.24955286 236.85503232 -36.8125 244.25 C-30.27262927 238.86767259 -24.34147979 232.91327635 -18.36938477 226.92041016 C-17.22572464 225.77646756 -16.08184347 224.6327459 -14.9377594 223.48922729 C-11.849253 220.40100653 -8.76382864 217.30972335 -5.67896771 214.21786165 C-2.44833577 210.98095714 0.78514879 207.74690473 4.01832581 204.51254272 C10.13289813 198.39486857 16.24491794 192.27465089 22.35601431 186.15350473 C29.31657617 179.18174602 36.27999482 172.21284365 43.24364936 165.24417424 C57.56143682 150.9159484 71.87565086 136.58415722 86.1875 122.25 C84.80446672 119.14161601 83.20830903 117.01981866 80.80944824 114.61798096 C80.11121445 113.91410751 79.41298065 113.21023407 78.69358826 112.48503113 C77.9278096 111.72330093 77.16203094 110.96157074 76.37304688 110.17675781 C75.56642105 109.36662735 74.75979523 108.55649689 73.9287262 107.72181702 C71.25957993 105.04386362 68.58317892 102.3732971 65.90625 99.703125 C64.05272602 97.84825435 62.19949907 95.99308685 60.34655762 94.13763428 C56.4629823 90.25042269 52.57521369 86.36744244 48.68505859 82.48681641 C44.18353614 77.99619316 39.68928469 73.49838949 35.19871283 68.99681783 C30.88050165 64.66845201 26.5567057 60.34571125 22.23048401 56.02535248 C20.38852402 54.18473076 18.54805984 52.34261093 16.70909119 50.49900055 C14.1448395 47.92969738 11.57431214 45.36684666 9.00195312 42.80566406 C8.23617447 42.03583694 7.47039581 41.26600983 6.68141174 40.47285461 C5.98317795 39.78026047 5.28494415 39.08766632 4.56555176 38.37408447 C3.95792244 37.76720921 3.35029312 37.16033394 2.72425079 36.53506851 C1.26566492 35.03616922 1.26566492 35.03616922 -0.8125 35.25 Z M-210.30036926 121.6134491 C-211.03836006 122.35683281 -211.03836006 122.35683281 -211.79125977 123.11523438 C-212.30834503 123.63217361 -212.8254303 124.14911285 -213.35818481 124.68171692 C-215.07580457 126.40003629 -216.78985006 128.12187648 -218.50390625 129.84375 C-219.69053259 131.03224034 -220.87737913 132.22051087 -222.06443787 133.40856934 C-225.19515171 136.54310974 -228.32285159 139.68064108 -231.44995117 142.81878662 C-234.63866115 146.01770775 -237.83018763 149.21381608 -241.02148438 152.41015625 C-247.28792946 158.6873411 -253.55119683 164.96768654 -259.8125 171.25 C-258.34100295 174.64988432 -256.44648434 176.86484706 -253.83385277 179.47474289 C-252.99733913 180.31523863 -252.16082549 181.15573436 -251.29896295 182.02169967 C-249.91279651 183.39912758 -249.91279651 183.39912758 -248.49862671 184.80438232 C-247.51064599 185.79323507 -246.52310483 186.78252715 -245.53596652 187.77222085 C-242.81999274 190.49267277 -240.09781181 193.20683894 -237.37459421 195.92003703 C-234.4398365 198.8461693 -231.51084901 201.77806725 -228.5811615 204.70927429 C-223.50377774 209.78770747 -218.4227408 214.86246179 -213.33921432 219.93474579 C-205.98926699 227.26844889 -198.64483915 234.60765906 -191.30175288 241.94823125 C-179.38834477 253.85726057 -167.47047585 265.76181538 -155.54980469 277.66357422 C-143.96901344 289.22601144 -132.39032164 300.7905444 -120.81445312 312.35791016 C-119.74440338 313.42717173 -119.74440338 313.42717173 -118.65273647 314.51803455 C-115.07405033 318.09411064 -111.49540549 321.67022806 -107.91678119 325.24636602 C-78.22175478 354.92065419 -48.51948975 384.58768867 -18.8125 414.25 C-15.03822433 412.48637287 -12.62942157 410.3085895 -9.67675781 407.34130859 C-9.17874161 406.84358444 -8.6807254 406.34586029 -8.1676178 405.83305359 C-6.52883267 404.1928793 -4.89723866 402.54574339 -3.265625 400.8984375 C-2.12834653 399.75742744 -0.9906246 398.61685923 0.14752197 397.47671509 C3.13739979 394.47921238 6.12122191 391.47575149 9.1038208 388.4710083 C12.15021321 385.40413288 15.20229703 382.34293306 18.25390625 379.28125 C24.23735434 373.27637217 30.21441663 367.26518768 36.1875 361.25 C31.27034277 355.32274172 25.96356996 349.88557878 20.51322937 344.44874573 C19.53509972 343.46946229 18.5571879 342.48996123 17.57947379 341.51026291 C14.90642925 338.83306086 12.23029562 336.15896583 9.55361974 333.48539507 C6.66231044 330.59635408 3.7738872 327.70443002 0.88508606 324.81288147 C-4.76722084 319.15613422 -10.42222015 313.50208603 -16.07819829 307.84900976 C-20.67227571 303.25719185 -25.26537478 298.66439745 -29.85777855 294.07090569 C-30.83860393 293.08985045 -30.83860393 293.08985045 -31.83924397 292.08897592 C-33.16756328 290.76033689 -34.49588033 289.43169562 -35.82419517 288.10305213 C-48.26972248 275.65467547 -60.7183095 263.20936221 -73.16794916 250.7650985 C-83.85988116 240.07764034 -94.54917976 229.3875542 -105.23657227 218.69555664 C-117.64599302 206.28079135 -130.05702522 193.86764073 -142.4706561 181.45708507 C-143.79253959 180.13552014 -145.11442099 178.81395311 -146.43630028 177.49238396 C-147.08671966 176.84211885 -147.73713905 176.19185374 -148.40726811 175.52188363 C-153.00041074 170.92960605 -157.59238863 166.33616577 -162.18392372 161.74228096 C-167.77138822 156.15201989 -173.36061452 150.56352764 -178.95214853 144.97733689 C-181.80717711 142.1249463 -184.66138201 139.27174376 -187.51344681 136.41638947 C-190.11960012 133.80727558 -192.72801554 131.20044653 -195.33832397 128.59548985 C-196.7387351 127.19674042 -198.13666766 125.79551086 -199.53453618 124.39422041 C-200.35490839 123.57645595 -201.17528061 122.75869148 -202.02051258 121.91614628 C-202.73379241 121.2030288 -203.44707224 120.48991133 -204.1819666 119.75518423 C-207.13595193 117.02828999 -207.7867178 119.10752228 -210.30036926 121.6134491 Z M-221.8125 256.25 C-222.4725 257.24 -223.1325 258.23 -223.8125 259.25 C-217.5425 265.52 -211.2725 271.79 -204.8125 278.25 C-206.78182506 282.18865011 -208.54371186 284.22376858 -211.62939453 287.29394531 C-212.11736511 287.78220795 -212.60533569 288.27047058 -213.10809326 288.77352905 C-214.71580275 290.37984962 -216.33047101 291.97897713 -217.9453125 293.578125 C-219.06390235 294.69298317 -220.18205029 295.80828487 -221.29977417 296.92401123 C-224.23809325 299.85470609 -227.18236955 302.77934422 -230.12792969 305.70275879 C-233.13448262 308.68882725 -236.13535882 311.68058859 -239.13671875 314.671875 C-245.02310686 320.53683456 -250.915801 326.39540732 -256.8125 332.25 C-260.1372945 330.67411996 -262.32881617 328.9682851 -264.921875 326.3359375 C-266.05302734 325.19511719 -266.05302734 325.19511719 -267.20703125 324.03125 C-267.98433594 323.2371875 -268.76164062 322.443125 -269.5625 321.625 C-270.35527344 320.82320313 -271.14804687 320.02140625 -271.96484375 319.1953125 C-273.91864493 317.21797154 -275.86762103 315.23611091 -277.8125 313.25 C-282.51591126 317.17288258 -286.95523951 321.26018696 -291.25 325.625 C-291.79076172 326.17027344 -292.33152344 326.71554687 -292.88867188 327.27734375 C-294.19896723 328.59923464 -295.50608284 329.92427618 -296.8125 331.25 C-293.72529302 334.96511348 -290.61980571 338.51487318 -287.12890625 341.85546875 C-286.51208984 342.44650391 -285.89527344 343.03753906 -285.25976562 343.64648438 C-283.98301263 344.85973049 -282.69889437 346.06526441 -281.40820312 347.26367188 C-280.80041016 347.85083984 -280.19261719 348.43800781 -279.56640625 349.04296875 C-279.01283447 349.5639917 -278.4592627 350.08501465 -277.88891602 350.62182617 C-276.8125 352.25 -276.8125 352.25 -276.95523071 354.03552246 C-278.16539644 357.16159364 -280.09621461 358.93093851 -282.45239258 361.30981445 C-283.17449165 362.04461784 -283.17449165 362.04461784 -283.91117859 362.79426575 C-285.50203922 364.40849489 -287.10383222 366.01131183 -288.70703125 367.61328125 C-289.81732822 368.73067789 -290.92732476 369.84837313 -292.03703308 370.96635437 C-294.36302483 373.30578915 -296.69486827 375.63920298 -299.03051758 377.96899414 C-302.0270508 380.95961966 -305.00490189 383.96811967 -307.97821522 386.98180866 C-310.26439145 389.29378927 -312.56189312 391.5942478 -314.86282921 393.89153099 C-315.96602175 394.99642038 -317.06521877 396.10531384 -318.16034889 397.21819496 C-319.69010639 398.77000722 -321.23480799 400.30521158 -322.78442383 401.8371582 C-324.09894279 403.15475883 -324.09894279 403.15475883 -325.4400177 404.49897766 C-327.8125 406.25 -327.8125 406.25 -329.98936462 406.14190674 C-332.61417502 404.85780786 -334.31688474 403.07998584 -336.359375 400.99609375 C-337.20371094 400.14208984 -338.04804688 399.28808594 -338.91796875 398.40820312 C-339.79066406 397.51037109 -340.66335938 396.61253906 -341.5625 395.6875 C-342.45066406 394.78580078 -343.33882813 393.88410156 -344.25390625 392.95507812 C-346.44698315 390.72662902 -348.63276044 388.49148407 -350.8125 386.25 C-353.2875 388.23 -353.2875 388.23 -355.8125 390.25 C-354.42815262 393.36465846 -352.82930359 395.48098131 -350.42098999 397.88201904 C-349.71986588 398.58589249 -349.01874176 399.28976593 -348.29637146 400.01496887 C-347.14299034 401.15756416 -347.14299034 401.15756416 -345.96630859 402.32324219 C-345.15647018 403.13337265 -344.34663177 403.94350311 -343.51225281 404.77818298 C-340.83319416 407.45584785 -338.14711989 410.12635816 -335.4609375 412.796875 C-333.6024801 414.65160245 -331.74446365 416.50677184 -329.88687134 418.36236572 C-325.49581439 422.74720961 -321.09968468 427.12693083 -316.70170653 431.50483155 C-311.6941809 436.4899928 -306.69234156 441.48084273 -301.69097018 446.47217703 C-291.40445943 456.73778972 -281.11083103 466.99624548 -270.8125 477.25 C-266.88679348 475.65821971 -264.24609082 472.95805719 -261.32025146 469.9982605 C-260.77780485 469.45752274 -260.23535824 468.91678498 -259.67647386 468.35966122 C-257.8599326 466.54641438 -256.05063228 464.72611144 -254.24121094 462.90576172 C-252.94057444 461.6045611 -251.63949743 460.30380068 -250.3380127 459.00344849 C-246.80494401 455.47095427 -243.27808124 451.93232188 -239.75228405 448.39257193 C-236.06696442 444.69476067 -232.37599072 441.00260198 -228.68560791 437.30984497 C-221.69769806 430.31571575 -214.71490266 423.31650331 -207.73392129 416.31545937 C-199.78629013 408.34548347 -191.83298791 400.38117714 -183.8791995 392.41734672 C-167.51730599 376.03454084 -151.1625626 359.64461256 -134.8125 343.25 C-136.19553328 340.14161601 -137.79169097 338.01981866 -140.19055176 335.61798096 C-140.88878555 334.91410751 -141.58701935 334.21023407 -142.30641174 333.48503113 C-143.0721904 332.72330093 -143.83796906 331.96157074 -144.62695312 331.17675781 C-145.43357895 330.36662735 -146.24020477 329.55649689 -147.0712738 328.72181702 C-149.74042007 326.04386362 -152.41682108 323.3732971 -155.09375 320.703125 C-156.94727398 318.84825435 -158.80050093 316.99308685 -160.65344238 315.13763428 C-164.5370177 311.25042269 -168.42478631 307.36744244 -172.31494141 303.48681641 C-176.81646386 298.99619316 -181.31071531 294.49838949 -185.80128717 289.99681783 C-190.11949835 285.66845201 -194.4432943 281.34571125 -198.76951599 277.02535248 C-200.61147598 275.18473076 -202.45194016 273.34261093 -204.29090881 271.49900055 C-206.8551605 268.92969738 -209.42568786 266.36684666 -211.99804688 263.80566406 C-212.76382553 263.03583694 -213.52960419 262.26600983 -214.31858826 261.47285461 C-215.01682205 260.78026047 -215.71505585 260.08766632 -216.43444824 259.37408447 C-217.04207756 258.76720921 -217.64970688 258.16033394 -218.27574921 257.53506851 C-219.73433508 256.03616922 -219.73433508 256.03616922 -221.8125 256.25 Z " fill="#FFC61B" transform="translate(390.8125,-0.25)"/>
<path d="M0 0 C0.75925781 -0.02578125 1.51851562 -0.0515625 2.30078125 -0.078125 C8.73038355 0.80581378 13.0088689 6.3270044 17.32421875 10.7265625 C18.04487015 11.45241547 18.76552155 12.17826843 19.50801086 12.92611694 C21.80182478 15.23769742 24.08881801 17.55587313 26.375 19.875 C28.67276806 22.20037104 30.97197562 24.5242718 33.27412415 26.8453064 C34.70477396 28.28823065 36.13274237 29.73381932 37.55778503 31.18228149 C38.52437798 32.15867081 38.52437798 32.15867081 39.51049805 33.15478516 C40.36057686 34.0172435 40.36057686 34.0172435 41.22782898 34.89712524 C42.66415049 36.35499323 42.66415049 36.35499323 44.6875 37.25 C43.1087811 41.0498095 40.71728537 43.49222178 37.84228516 46.40161133 C37.35098618 46.90123383 36.85968719 47.40085632 36.35350037 47.9156189 C34.73327117 49.55988003 33.10554045 51.1964399 31.4765625 52.83203125 C30.34549425 53.97206651 29.21450373 55.1121789 28.08358765 56.25236511 C25.71503811 58.63738548 23.34214662 61.01799358 20.96679688 63.39624023 C17.9193421 66.44909631 14.88839532 69.51780373 11.86112404 72.59065723 C9.53271852 74.94874375 7.1932009 77.29555772 4.85041428 79.63934898 C3.72754272 80.76643575 2.60880658 81.89765787 1.49428177 83.03299904 C-0.06178529 84.61581192 -1.632751 86.18217217 -3.20849609 87.74536133 C-4.09959076 88.64152664 -4.99068542 89.53769196 -5.90878296 90.46101379 C-8.3125 92.25 -8.3125 92.25 -10.42349243 92.21528625 C-12.54089178 91.13329139 -13.95465466 89.98867948 -15.640625 88.31005859 C-16.26807617 87.6920639 -16.89552734 87.07406921 -17.54199219 86.43734741 C-18.20875977 85.76450714 -18.87552734 85.09166687 -19.5625 84.3984375 C-20.60519043 83.36005234 -20.60519043 83.36005234 -21.66894531 82.3006897 C-23.13845871 80.83321775 -24.60419047 79.36195059 -26.06640625 77.88720703 C-28.29368174 75.64395326 -30.53638326 73.41703973 -32.78125 71.19140625 C-34.20929553 69.76137688 -35.6364094 68.33041642 -37.0625 66.8984375 C-37.72926758 66.23774261 -38.39603516 65.57704773 -39.08300781 64.89633179 C-43.81496731 60.09305568 -47.8451331 55.57998913 -48.8125 48.6875 C-47.67546183 40.87036257 -41.04748084 35.70655596 -35.6796875 30.38671875 C-34.43011765 29.13783623 -34.43011765 29.13783623 -33.15530396 27.86372375 C-31.40098954 26.11242073 -29.64425504 24.36353901 -27.88525391 22.61694336 C-25.18461801 19.93463757 -22.49214345 17.24434191 -19.80078125 14.55273438 C-18.09422253 12.85108847 -16.38720716 11.14990039 -14.6796875 9.44921875 C-13.46718826 8.23838875 -13.46718826 8.23838875 -12.23019409 7.00309753 C-11.48246735 6.26175064 -10.7347406 5.52040375 -9.96435547 4.7565918 C-9.30579559 4.10184372 -8.64723572 3.44709564 -7.96871948 2.77250671 C-5.32778061 0.34478068 -3.50140597 0.07061659 0 0 Z " fill="#FFEDBE" transform="translate(107.3125,46.75)"/>
<path d="M0 0 C2.30737255 9.44207734 4.11301018 18.91035809 5.6875 28.5 C5.91444419 29.84379552 6.14165671 31.18754574 6.36914062 32.53125 C6.58119141 33.81 6.79324219 35.08875 7.01171875 36.40625 C7.20209717 37.55416016 7.39247559 38.70207031 7.58862305 39.88476562 C7.95258248 42.64092137 8.08207029 45.22582972 8 48 C2.11535001 47.31168502 -3.69840009 46.40628721 -9.53125 45.37109375 C-10.84603333 45.1401577 -10.84603333 45.1401577 -12.18737793 44.90455627 C-14.95857922 44.41737548 -17.72929299 43.92748324 -20.5 43.4375 C-22.39059331 43.10463766 -24.28121802 42.77195361 -26.171875 42.43945312 C-30.78161555 41.62836272 -35.39092118 40.81484196 -40 40 C-38.59779351 36.83199926 -36.94085834 34.68824332 -34.5 32.24121094 C-33.78585937 31.52076599 -33.07171875 30.80032104 -32.3359375 30.05804443 C-31.56507813 29.29123352 -30.79421875 28.52442261 -30 27.734375 C-29.20851563 26.94097717 -28.41703125 26.14757935 -27.6015625 25.33013916 C-25.92954263 23.65675946 -24.25499903 21.98589819 -22.578125 20.31738281 C-20.00287602 17.75286403 -17.43848948 15.17783011 -14.875 12.6015625 C-13.25064116 10.97852473 -11.62566231 9.35610719 -10 7.734375 C-9.22914063 6.95946716 -8.45828125 6.18455933 -7.6640625 5.38616943 C-6.94992187 4.67833313 -6.23578125 3.97049683 -5.5 3.24121094 C-4.8709375 2.61373962 -4.241875 1.98626831 -3.59375 1.33978271 C-2 0 -2 0 0 0 Z " fill="#FFECBA" transform="translate(442,390)"/>
</svg>
