<?xml version="1.0" encoding="UTF-8"?>
<svg version="1.1" xmlns="http://www.w3.org/2000/svg" width="512" height="512">
<path d="M0 0 C12.13550006 10.29001822 20.84277325 24.50060262 22.875 40.375 C24.15571381 40.36833817 25.43642761 40.36167633 26.75595093 40.35481262 C38.84948037 40.29389 50.9429785 40.24897381 63.03662682 40.21956348 C69.25348706 40.20393486 75.470223 40.18274764 81.68701172 40.14868164 C87.69111979 40.11598848 93.69510861 40.09812591 99.69929886 40.09036827 C101.98532614 40.08484264 104.2713472 40.07405255 106.55732346 40.05780983 C109.76931406 40.03590349 112.98081732 40.03303862 116.19287109 40.03442383 C117.59765717 40.01824509 117.59765717 40.01824509 119.03082275 40.0017395 C130.13047779 40.05324033 139.09184008 43.41800579 147.5 50.625 C154.78535883 59.06067864 158.18876358 66.47600712 158.14242554 77.80041504 C158.14695665 78.62225108 158.15148776 79.44408711 158.15615618 80.29082727 C158.16876464 83.03053139 158.16718214 85.7700358 158.16552734 88.50976562 C158.17151466 90.47971348 158.17832068 92.449659 158.18588257 94.41960144 C158.20352532 99.76040828 158.20823712 105.10115101 158.20951414 110.44198418 C158.21093685 113.77971435 158.21520863 117.11742828 158.22050858 120.45515442 C158.2390005 132.10178664 158.2471799 143.74837312 158.24560547 155.39501953 C158.24440309 166.24859663 158.26552656 177.10197519 158.2970928 187.95550203 C158.32324173 197.27882717 158.3339734 206.60208737 158.33269465 215.92544889 C158.33218477 221.49185898 158.33788283 227.05809242 158.35905075 232.62446594 C158.37841067 237.85795837 158.37857288 243.09110516 158.36401749 248.32460976 C158.36192577 250.24384885 158.36665184 252.16310946 158.3787384 254.08231163 C158.39418513 256.70514218 158.38488703 259.32677992 158.36947632 261.94958496 C158.37976344 262.70650084 158.39005057 263.46341672 158.40064943 264.24326944 C158.3300835 269.68887913 156.95169307 272.86785039 153.875 277.375 C150.06974527 280.54604561 145.77904444 281.51511556 140.875 281.375 C135.00204048 279.68279132 132.25781959 277.25024 128.875 272.375 C127.47048549 268.55086287 127.73121125 264.52381891 127.73696899 260.50448608 C127.73414771 259.70618681 127.73132643 258.90788753 127.72841966 258.08539736 C127.72007959 255.40767046 127.71873595 252.72998493 127.71728516 250.05224609 C127.71261671 248.1337421 127.70747309 246.21523922 127.70188904 244.29673767 C127.69061138 240.16449462 127.68217579 236.03225877 127.67576981 231.90000534 C127.6650969 225.37134862 127.64485598 218.84274384 127.62265015 212.31411743 C127.5606954 193.74914923 127.50664437 175.18418454 127.47363281 156.61914062 C127.45532223 146.36668387 127.4264357 136.11431449 127.3856281 125.86192191 C127.36450632 120.43372693 127.34909346 115.00564227 127.34682083 109.57740402 C127.34468278 104.47694376 127.3289003 99.3767136 127.30243111 94.27632332 C127.29520563 92.40015619 127.29315273 90.52396128 127.29653358 88.64778328 C127.30039972 86.09542798 127.28606784 83.54381806 127.26699829 80.99154663 C127.27252799 80.24136588 127.27805768 79.49118512 127.28375494 78.71827161 C127.28959183 76.4464921 127.28959183 76.4464921 126.875 73.375 C123.11836832 70.87057888 120.06491875 71.02614563 115.70703125 70.9609375 C114.91221848 70.94157135 114.1174057 70.9222052 113.29850769 70.9022522 C110.76161405 70.84250558 108.22467491 70.79609117 105.6875 70.75 C103.96677716 70.71181565 102.24607335 70.67276365 100.52539062 70.6328125 C96.30874835 70.53680821 92.0920166 70.45275924 87.875 70.375 C87.89071045 71.68170654 87.9064209 72.98841309 87.92260742 74.3347168 C87.9769672 79.18947164 88.01137226 84.04419964 88.03979492 88.89916992 C88.05486772 90.99915086 88.07532941 93.0991004 88.10131836 95.19897461 C88.13776754 98.21996824 88.15474159 101.24054511 88.16796875 104.26171875 C88.18345261 105.19835861 88.19893646 106.13499847 88.21488953 107.10002136 C88.21615544 112.01932504 88.12042781 115.40471976 84.875 119.375 C81.10440097 122.68576988 78.77897169 124.49727167 73.7725563 124.50922108 C72.47631029 124.51590784 72.47631029 124.51590784 71.1538775 124.52272969 C70.19884072 124.52254533 69.24380394 124.52236097 68.25982666 124.52217102 C66.744532 124.52768605 66.744532 124.52768605 65.19862533 124.5333125 C61.79159153 124.54438279 58.38458819 124.54819883 54.97753906 124.55200195 C52.54365949 124.55826405 50.10978087 124.56491062 47.67590332 124.57191467 C40.35592095 124.59116695 33.03594108 124.60174657 25.71594107 124.61064246 C22.26987278 124.61502418 18.82380603 124.62039131 15.37773895 124.62563133 C3.9238479 124.64264481 -7.53004219 124.65713918 -18.98394394 124.66438007 C-21.95706941 124.66629001 -24.93019487 124.66821033 -27.90332031 124.67016602 C-29.01177171 124.67089163 -29.01177171 124.67089163 -30.14261606 124.6716319 C-42.11449036 124.6799329 -54.08626476 124.70527043 -66.05809543 124.73774669 C-78.34594458 124.77080877 -90.63374295 124.78882808 -102.92163682 124.79202431 C-109.82220798 124.79419026 -116.72263348 124.80295106 -123.62316132 124.82848549 C-130.11395283 124.85244805 -136.60455323 124.85602348 -143.09538269 124.84572411 C-145.47945781 124.84522718 -147.86354559 124.85159342 -150.24758148 124.86528015 C-153.49933556 124.88290578 -156.75013826 124.87593822 -160.00189209 124.86274719 C-161.42106292 124.87920106 -161.42106292 124.87920106 -162.86890388 124.89598733 C-169.71971508 124.82877213 -172.76627094 123.27045608 -177.9375 118.8125 C-180.19208163 116.08326961 -180.24820228 113.37259501 -180.23852539 109.99536133 C-180.23841209 108.67433159 -180.23841209 108.67433159 -180.23829651 107.32661438 C-180.23313522 106.37965195 -180.22797394 105.43268951 -180.22265625 104.45703125 C-180.2212413 103.48465012 -180.21982635 102.51226898 -180.21836853 101.51042175 C-180.21276817 98.40274996 -180.20021562 95.29515004 -180.1875 92.1875 C-180.18248505 90.08138125 -180.17792213 87.97526137 -180.17382812 85.86914062 C-180.16279862 80.70439936 -180.14553375 75.53971187 -180.125 70.375 C-185.19734884 70.46853106 -190.26922013 70.57462375 -195.34106445 70.69238281 C-197.06657708 70.73067345 -198.79216956 70.76552621 -200.51782227 70.796875 C-202.99784895 70.84252404 -205.47732591 70.90051781 -207.95703125 70.9609375 C-208.72900345 70.97248871 -209.50097565 70.98403992 -210.29634094 70.99594116 C-214.07746674 71.10021273 -215.90518835 71.2284589 -219.125 73.375 C-219.57839442 76.26806077 -219.57839442 76.26806077 -219.49414349 79.74310493 C-219.49760502 80.40725511 -219.50106655 81.07140528 -219.50463298 81.75568122 C-219.51263599 84.0031239 -219.49906437 86.24993445 -219.48576355 88.49734497 C-219.48707058 90.11599437 -219.4896951 91.73464315 -219.49353105 93.35328853 C-219.50026817 97.81826725 -219.48819926 102.28303181 -219.47319686 106.74798322 C-219.46028703 111.55644574 -219.46462237 116.36489539 -219.46690369 121.17337036 C-219.46847963 129.51003016 -219.45903694 137.84661974 -219.44219017 146.18326187 C-219.41784815 158.23675716 -219.40999982 170.29021836 -219.4062262 182.34373556 C-219.39965416 201.89795886 -219.37967264 221.4521447 -219.35131836 241.00634766 C-219.32379722 260.0056947 -219.30255413 279.00503159 -219.28979492 298.00439453 C-219.28900675 299.17477135 -219.28821858 300.34514817 -219.28740653 301.55099095 C-219.28349152 307.42220555 -219.27970037 313.29342022 -219.27597082 319.16463494 C-219.2448515 367.90144919 -219.19199528 416.63822277 -219.125 465.375 C-215.81380307 466.36861974 -212.81508174 466.5002937 -209.36531067 466.50084114 C-208.18242557 466.50344889 -206.99954046 466.50605664 -205.78081036 466.50874341 C-204.48004968 466.50651268 -203.179289 466.50428196 -201.83911133 466.50198364 C-200.44432694 466.50313557 -199.04954286 466.50472358 -197.65475941 466.50671089 C-193.8177791 466.51089437 -189.98082359 466.50881792 -186.14384317 466.50572467 C-182.00746395 466.50346682 -177.87108906 466.50695211 -173.73471069 466.50970459 C-165.62987246 466.51415713 -157.52504348 466.5131881 -149.42020488 466.51029195 C-142.83471141 466.5080359 -136.24922055 466.50772627 -129.66372681 466.50881577 C-128.72735156 466.508969 -127.79097631 466.50912223 -126.82622606 466.50928011 C-124.92414912 466.50959983 -123.02207218 466.50992404 -121.11999524 466.5102527 C-103.27356437 466.51310598 -85.42713864 466.50982284 -67.58070862 466.50445233 C-52.25920682 466.49998443 -36.9377126 466.50076041 -21.61621094 466.50537109 C-3.83474318 466.51071953 13.94672007 466.5128313 31.72818851 466.50975883 C33.62336794 466.50944027 35.51854738 466.5091259 37.41372681 466.50881577 C38.34625328 466.50866149 39.27877975 466.50850721 40.2395646 466.50834826 C46.81908379 466.50748392 53.39860014 466.50894422 59.9781189 466.51129532 C67.99356181 466.5140965 76.00899493 466.51334831 84.02443671 466.50801457 C88.11600391 466.50538188 92.20755477 466.50436524 96.29912186 466.50766373 C100.04197176 466.51063551 103.7847901 466.50901905 107.52763712 466.50368617 C109.5286949 466.50203354 111.52975484 466.50531172 113.53081036 466.50874341 C115.30513801 466.50483178 115.30513801 466.50483178 117.11531067 466.50084114 C118.13838727 466.50067879 119.16146387 466.50051644 120.21554279 466.50034916 C122.59664181 466.38811996 124.60037301 466.05756716 126.875 465.375 C126.87858253 464.5265824 126.87858253 464.5265824 126.88223743 463.66102505 C126.94144607 449.8805207 127.0172211 436.10019252 127.11071491 422.31987667 C127.15542992 415.65572044 127.19468377 408.991647 127.22143555 402.32739258 C127.24745686 395.89524899 127.28785169 389.46334113 127.33818626 383.03134346 C127.35486277 380.57821143 127.36637215 378.12503861 127.37261391 375.67185783 C127.3822461 372.23403116 127.41029639 368.79680868 127.44262695 365.35913086 C127.44119186 364.34636581 127.43975677 363.33360077 127.4382782 362.29014587 C127.53508451 355.00471254 128.4346275 350.04778893 133.5 344.5 C137.69929089 341.85600203 140.92699361 340.94037782 145.875 341.375 C150.56003051 342.83907204 154.45511647 344.96227121 156.875 349.375 C157.83064672 352.24194015 158.00686077 354.05044222 158.02217102 357.02758789 C158.03290398 358.46137032 158.03290398 358.46137032 158.04385376 359.92411804 C158.04654266 360.97138565 158.04923157 362.01865326 158.05200195 363.09765625 C158.05857315 364.20208572 158.06514435 365.3065152 158.07191467 366.44441223 C158.09166446 370.1087755 158.10331633 373.77309767 158.11328125 377.4375 C158.11735678 378.68976379 158.1214323 379.94202759 158.12563133 381.23223877 C158.14435011 387.18082882 158.15891109 393.12940583 158.1672433 399.07801819 C158.17699199 405.92362603 158.20324806 412.76890848 158.24374419 419.61440182 C158.27768955 425.55867262 158.28940062 431.50286495 158.29344749 437.44723511 C158.29830673 439.96689047 158.30990166 442.48654252 158.32848549 445.00613403 C158.35294604 448.54341145 158.35189832 452.07985063 158.3449707 455.6171875 C158.36418579 457.16379814 158.36418579 457.16379814 158.38378906 458.74165344 C158.30935693 469.22945928 155.21026313 478.70325691 147.875 486.375 C140.65950719 492.72463367 133.58984803 496.49507909 123.90784073 496.50642776 C122.67865488 496.51026891 121.44946904 496.51411005 120.18303514 496.5180676 C118.81686793 496.51728736 117.45070078 496.51640858 116.08453369 496.51544189 C114.63485248 496.5180256 113.18517198 496.52103878 111.73549247 496.5244453 C107.74661722 496.53251788 103.75775996 496.53430501 99.76887751 496.53504276 C95.46881788 496.53689286 91.1687676 496.54443997 86.86871338 496.55117798 C77.46375564 496.56476356 68.05880217 496.57078634 58.65383625 496.57518864 C52.78220085 496.57795062 46.91056709 496.58218789 41.0389328 496.58669281 C24.78451262 496.59888567 8.53009376 496.60918502 -7.7243309 496.6125679 C-8.76477708 496.61278747 -9.80522326 496.61300703 -10.87719811 496.61323325 C-11.92014373 496.61345153 -12.96308935 496.61366981 -14.03763938 496.6138947 C-16.15106948 496.61433817 -18.26449959 496.61478473 -20.37792969 496.61523438 C-21.4262656 496.6154558 -22.47460151 496.61567723 -23.55470517 496.61590537 C-40.54309769 496.61985374 -57.53144733 496.63730888 -74.51982328 496.6605939 C-91.95834162 496.68430313 -109.39683844 496.69676955 -126.83537316 496.69793582 C-136.62775778 496.69885281 -146.42008652 496.70461119 -156.21245575 496.72275543 C-164.55059381 496.73815062 -172.88865871 496.74328031 -181.22680828 496.73501733 C-185.48094206 496.73110879 -189.73492851 496.73205034 -193.98904419 496.74607468 C-197.88514646 496.7588013 -201.7809905 496.75762706 -205.67709234 496.74548396 C-207.08491445 496.74352482 -208.49275478 496.7466155 -209.90055129 496.75532833 C-222.35430564 496.82751108 -231.55426368 494.37499345 -240.88671875 485.74609375 C-247.45500837 478.61528059 -250.24649564 470.26472736 -250.25642776 460.71064568 C-250.2584804 460.03874191 -250.26053303 459.36683815 -250.26264787 458.67457366 C-250.26832269 456.41290344 -250.26686002 454.15129402 -250.26544189 451.88961792 C-250.26802526 450.25574617 -250.27103834 448.62187505 -250.2744453 446.9880048 C-250.28252203 442.48992037 -250.28430524 437.99185189 -250.28504276 433.49376106 C-250.28689217 428.64560136 -250.29443898 423.79744996 -250.30117798 418.94929504 C-250.31476705 408.34382793 -250.32078704 397.7383646 -250.32518864 387.13289022 C-250.32795033 380.51146585 -250.33218758 373.89004293 -250.33669281 367.26861954 C-250.34888669 348.93824035 -250.35918547 330.60786233 -250.3625679 312.27747917 C-250.36278747 311.10399361 -250.36300703 309.93050805 -250.36323325 308.72146232 C-250.36345153 307.54515496 -250.36366981 306.3688476 -250.3638947 305.15689456 C-250.36433817 302.77321617 -250.36478473 300.38953777 -250.36523438 298.00585938 C-250.3654558 296.82347042 -250.36567723 295.64108147 -250.36590537 294.42286254 C-250.36985291 275.26630376 -250.38730504 256.10978303 -250.4105939 236.95323895 C-250.43430759 217.28858672 -250.44676978 197.62395357 -250.44793582 177.95928681 C-250.44885262 166.91711043 -250.4546061 155.87498362 -250.47275543 144.83282089 C-250.4881567 135.42938033 -250.49327674 126.02600465 -250.48501733 116.62255387 C-250.48111081 111.8254071 -250.48204053 107.02839099 -250.49607468 102.2312603 C-250.50881344 97.83668264 -250.50761626 93.4423338 -250.49548396 89.04775645 C-250.49352692 87.46089618 -250.49660576 85.8740197 -250.50532833 84.2871822 C-250.57329619 71.08252567 -249.19992716 60.51859619 -240.125 50.375 C-232.76757827 44.2004853 -224.21440609 40.2979052 -214.53752136 40.21678162 C-213.64716187 40.2069928 -212.75680237 40.19720398 -211.83946228 40.18711853 C-210.87561111 40.18136307 -209.91175995 40.1756076 -208.91870117 40.16967773 C-207.89384613 40.15977814 -206.86899109 40.14987854 -205.81307983 40.13967896 C-202.4313995 40.10813505 -199.04970513 40.08333457 -195.66796875 40.05859375 C-193.32098529 40.03801809 -190.9740055 40.01702146 -188.62702942 39.99562073 C-182.45393842 39.9404633 -176.28081433 39.89102608 -170.10766602 39.84277344 C-163.80677347 39.79251222 -157.50592891 39.73685027 -151.20507812 39.68164062 C-138.84509308 39.57413645 -126.48506636 39.47267428 -114.125 39.375 C-113.7945166 38.35817139 -113.4640332 37.34134277 -113.12353516 36.29370117 C-112.6788891 34.93923186 -112.23405487 33.58482432 -111.7890625 32.23046875 C-111.57258057 31.56269409 -111.35609863 30.89491943 -111.13305664 30.20690918 C-105.32774297 12.60248397 -92.71579769 -0.9286415 -76.3125 -9.375 C-50.83508102 -21.6907149 -21.92648474 -17.25951255 0 0 Z " fill="#FEC61B" transform="translate(302.125,15.625)"/>
<path d="M0 0 C1.63177185 -0.01073296 1.63177185 -0.01073296 3.29650879 -0.02168274 C4.49032166 -0.02437164 5.68413452 -0.02706055 6.91412354 -0.02983093 C8.79986084 -0.03968773 8.79986084 -0.03968773 10.72369385 -0.04974365 C14.89425382 -0.07076567 19.06481408 -0.0811448 23.2354126 -0.09111023 C24.67252878 -0.09515858 26.10964477 -0.09927553 27.54676056 -0.10346031 C34.29944942 -0.12250849 41.05212738 -0.13673988 47.80483794 -0.14507228 C55.59283594 -0.15484147 63.38054947 -0.18115393 71.16844726 -0.22157317 C77.19234891 -0.25176146 83.21616915 -0.26654374 89.24014497 -0.26985329 C92.83594277 -0.27220086 96.43143654 -0.28112234 100.02715302 -0.30631447 C104.04174112 -0.33398706 108.05569604 -0.32975584 112.07037354 -0.32279968 C113.25608948 -0.33560974 114.44180542 -0.3484198 115.66345215 -0.36161804 C122.23864211 -0.32007879 126.46560253 0.09899164 131.7510376 4.14717102 C136.761228 9.71998535 136.31943602 17.22155941 136.24713135 24.27607727 C136.24858658 25.42454636 136.25004181 26.57301544 136.25154114 27.75628662 C136.24988743 30.17428638 136.23838575 32.59229723 136.21759033 35.01020813 C136.18860176 38.70150125 136.19700087 42.39135946 136.21002197 46.0827179 C136.20378483 48.43884463 136.19539409 50.79496686 136.18463135 53.15107727 C136.18756699 54.24916214 136.19050262 55.34724701 136.19352722 56.47860718 C136.12017029 62.46291941 135.71021126 66.89462671 132.7510376 72.14717102 C128.59904942 75.99535518 126.12700544 77.26956371 120.54640198 77.29434204 C119.44310043 77.30149734 118.33979889 77.30865265 117.20306396 77.31602478 C115.98695435 77.31871368 114.77084473 77.32140259 113.5178833 77.32417297 C111.60310432 77.33402977 111.60310432 77.33402977 109.64964294 77.34408569 C105.40871439 77.36513756 101.16778544 77.37549109 96.92681885 77.38545227 C95.46648833 77.38949981 94.006158 77.39361673 92.54582787 77.39780235 C85.68314471 77.41685878 78.82047232 77.43108722 71.95776778 77.43941432 C64.04015059 77.44918019 56.12281345 77.47548053 48.20529491 77.51591522 C42.08374971 77.54610282 35.96228465 77.56088581 29.84066647 77.56419533 C26.18561108 77.56654342 22.53085471 77.57547133 18.87587929 77.60065651 C14.7941294 77.62832692 10.71300234 77.62409807 6.63116455 77.61714172 C5.42517609 77.62995178 4.21918762 77.64276184 2.97665405 77.65596008 C-3.65213889 77.61476705 -7.89624646 77.18602742 -13.2489624 73.14717102 C-17.50143004 67.69966488 -16.69873334 60.89971616 -16.68255615 54.30342102 C-16.687798 53.06096619 -16.69303986 51.81851135 -16.69844055 50.53840637 C-16.70649173 47.2460829 -16.69941172 43.95417806 -16.68811035 40.66188049 C-16.68646373 38.64878856 -16.69845413 36.63626025 -16.71551514 34.62324524 C-16.74619999 30.74553566 -16.74959806 26.8687326 -16.74505615 22.99092102 C-16.75629013 21.79390564 -16.76752411 20.59689026 -16.77909851 19.36360168 C-16.72592108 13.00697248 -16.60217763 8.941635 -12.2489624 4.14717102 C-8.34808964 0.71913132 -5.1088625 0.0230592 0 0 Z " fill="#FFC61B" transform="translate(138.24896240234375,166.8528289794922)"/>
<path d="M0 0 C1.09633255 -0.00571014 2.1926651 -0.01142029 3.32221985 -0.01730347 C4.53054977 -0.01842133 5.7388797 -0.01953918 6.98382568 -0.02069092 C8.88638374 -0.02813828 8.88638374 -0.02813828 10.82737732 -0.03573608 C14.31308724 -0.04886908 17.7987779 -0.0553071 21.28450871 -0.05974674 C23.46253024 -0.06267679 25.64054649 -0.06678153 27.81856537 -0.07125092 C34.63372945 -0.08492991 41.44888149 -0.09459388 48.26405835 -0.09845281 C56.12956451 -0.10293088 63.99489665 -0.12046531 71.86034989 -0.1494534 C77.94026744 -0.17108227 84.02013609 -0.18115777 90.1000917 -0.18249393 C93.73102361 -0.18354135 97.36179203 -0.18943531 100.99268341 -0.20731354 C105.04582743 -0.22688176 109.09860839 -0.22250047 113.15179443 -0.21600342 C114.35202744 -0.2252182 115.55226044 -0.23443298 116.78886414 -0.243927 C127.01681448 -0.19250012 127.01681448 -0.19250012 131.82659912 3.14044189 C136.16837135 7.71690451 136.93694148 11.18077503 137.00360107 17.33282471 C137.02285393 18.885289 137.02285393 18.885289 137.04249573 20.46911621 C137.04988266 21.58268494 137.05726959 22.69625366 137.06488037 23.84356689 C137.07295212 24.9953241 137.08102386 26.1470813 137.08934021 27.33374023 C137.10316693 29.77140809 137.11389539 32.20909519 137.12176514 34.64678955 C137.13896973 38.36249745 137.18286944 42.07731363 137.22698975 45.79278564 C137.23711789 48.16387287 137.24563361 50.53496764 137.25238037 52.90606689 C137.26988846 54.0115387 137.28739655 55.1170105 137.30543518 56.25598145 C137.28830167 62.3911337 137.12581808 68.37642298 132.82659912 73.14044189 C126.56668625 77.93173565 120.78480993 77.71028112 113.10174561 77.65802002 C111.19809235 77.66853394 111.19809235 77.66853394 109.25598145 77.67926025 C105.79107055 77.69742155 102.3266386 77.69045686 98.86171985 77.67774391 C95.22769093 77.66758082 91.59370163 77.67701854 87.95967102 77.68328857 C81.859331 77.69055448 75.75918504 77.68100425 69.65887451 77.66192627 C62.61446007 77.6401496 55.57050861 77.64721859 48.52610534 77.66923189 C42.46728165 77.68740455 36.40859702 77.68993545 30.34975487 77.67947721 C26.73565558 77.67325371 23.12177369 77.67237507 19.50768852 77.68562317 C15.47886763 77.6993616 11.45084074 77.68030183 7.42205811 77.65802002 C6.22968033 77.66611694 5.03730255 77.67421387 3.80879211 77.68255615 C-2.49603024 77.61792978 -6.38532855 77.39175989 -11.17340088 73.14044189 C-11.77152588 72.62481689 -12.36965088 72.10919189 -12.98590088 71.57794189 C-15.48284966 68.55531969 -15.30880225 65.38084714 -15.33453369 61.64678955 C-15.34414124 60.52197174 -15.35374878 59.39715393 -15.36364746 58.23825073 C-15.36789734 57.02261444 -15.37214722 55.80697815 -15.37652588 54.55450439 C-15.38222595 53.30543304 -15.38792603 52.05636169 -15.39379883 50.7694397 C-15.40325186 48.12484086 -15.41014726 45.48035559 -15.41363525 42.83575439 C-15.41911788 39.45409104 -15.44314544 36.07283075 -15.47160721 32.69129372 C-15.4947578 29.45822793 -15.49668472 26.22514146 -15.50152588 22.99200439 C-15.51387268 21.78041656 -15.52621948 20.56882874 -15.53894043 19.32052612 C-15.53593933 18.18940399 -15.53293823 17.05828186 -15.52984619 15.8928833 C-15.53349182 14.9004361 -15.53713745 13.90798889 -15.54089355 12.88546753 C-14.93833184 8.38456872 -12.96926539 5.83924976 -9.61090088 2.89044189 C-6.07749269 0.35363602 -4.30778116 0.01339833 0 0 Z " fill="#FFC61B" transform="translate(137.17340087890625,372.85955810546875)"/>
<path d="M0 0 C1.09770721 -0.0071553 2.19541443 -0.01431061 3.3263855 -0.02168274 C5.13348747 -0.02571609 5.13348747 -0.02571609 6.97709656 -0.02983093 C8.87987366 -0.03968773 8.87987366 -0.03968773 10.8210907 -0.04974365 C15.02892292 -0.07076443 19.23675544 -0.08114362 23.44462585 -0.09111023 C24.89414679 -0.09515841 26.34366754 -0.09927536 27.7931881 -0.10346031 C34.60300608 -0.122507 41.41281324 -0.13673957 48.22265273 -0.14507228 C56.07971011 -0.15484559 63.93648584 -0.18116944 71.79344398 -0.22157317 C77.86913424 -0.25174334 83.9447438 -0.26654196 90.02050751 -0.26985329 C93.64813024 -0.27220262 97.27545188 -0.28114739 100.90299416 -0.30631447 C104.95131258 -0.33394767 108.9990023 -0.32976137 113.04740906 -0.32279968 C114.84540199 -0.34201477 114.84540199 -0.34201477 116.67971802 -0.36161804 C123.00424063 -0.32191668 126.90751633 -0.12712587 131.7063446 4.14717102 C132.3044696 4.66279602 132.9025946 5.17842102 133.5188446 5.70967102 C136.01579338 8.73229323 135.84174597 11.90676577 135.86747742 15.64082336 C135.87708496 16.76564117 135.8866925 17.89045898 135.89659119 19.04936218 C135.902966 20.87281662 135.902966 20.87281662 135.9094696 22.73310852 C135.91516968 23.98217987 135.92086975 25.23125122 135.92674255 26.51817322 C135.93619558 29.16277205 135.94309098 31.80725732 135.94657898 34.45185852 C135.95206161 37.83352188 135.97608916 41.21478217 136.00455093 44.5963192 C136.02770152 47.82938498 136.02962845 51.06247145 136.0344696 54.29560852 C136.04681641 55.50719635 136.05916321 56.71878418 136.07188416 57.96708679 C136.06888306 59.09820892 136.06588196 60.22933105 136.06278992 61.39472961 C136.06825836 62.88340042 136.06825836 62.88340042 136.07383728 64.40214539 C135.47127557 68.9030442 133.50220911 71.44836316 130.1438446 74.39717102 C126.61043642 76.9339769 124.84072488 77.27421459 120.53294373 77.28761292 C118.8884449 77.29617813 118.8884449 77.29617813 117.21072388 77.30491638 C116.00239395 77.30603424 114.79406403 77.3071521 113.54911804 77.30830383 C112.280746 77.31326874 111.01237396 77.31823364 109.70556641 77.323349 C106.21985648 77.33648199 102.73416583 77.34292002 99.24843502 77.34735966 C97.07041349 77.35028971 94.89239723 77.35439444 92.71437836 77.35886383 C85.89921427 77.37254283 79.08406224 77.38220679 72.26888537 77.38606572 C64.40337922 77.3905438 56.53804708 77.40807823 48.67259383 77.43706632 C42.59267628 77.45869518 36.51280764 77.46877069 30.43285203 77.47010684 C26.80192012 77.47115427 23.1711517 77.47704823 19.54026031 77.49492645 C15.4871163 77.51449467 11.43433534 77.51011339 7.38114929 77.50361633 C6.18091629 77.51283112 4.98068329 77.5220459 3.74407959 77.53153992 C-6.58614157 77.47959881 -6.58614157 77.47959881 -11.2936554 74.14717102 C-14.90868554 69.45740219 -16.40724807 65.93469396 -16.47065735 60.0683136 C-16.48349258 59.03326187 -16.49632782 57.99821014 -16.509552 56.93179321 C-16.51693893 55.8130632 -16.52432587 54.69433319 -16.53193665 53.54170227 C-16.54000839 52.38853012 -16.54808014 51.23535797 -16.55639648 50.04724121 C-16.57023609 47.60359703 -16.58095879 45.15993354 -16.58882141 42.71626282 C-16.60600768 38.99168381 -16.6498936 35.26799847 -16.69404602 31.5436554 C-16.70417544 29.16801087 -16.71269076 26.79235881 -16.71943665 24.41670227 C-16.73694473 23.30809341 -16.75445282 22.19948456 -16.77249146 21.05728149 C-16.75361426 14.27692289 -15.91406683 9.92360033 -12.2936554 4.14717102 C-8.51547272 0.59796911 -5.06277709 0.02264377 0 0 Z " fill="#FFC61B" transform="translate(254.2936553955078,269.8528289794922)"/>
<path d="M0 0 C8.16804798 5.62153891 13.89374496 13.57319123 17 23 C17.55061992 26.53904673 17.82702078 30.10593463 18.12304688 33.67382812 C18.69077382 39.42781748 19.97385099 43.63561788 23.82666016 48.1315918 C28.82698604 51.07569812 33.8186449 50.60342527 39.51953125 50.609375 C40.73323898 50.62591125 41.94694672 50.64244751 43.19743347 50.65948486 C47.06917351 50.70802083 50.94052058 50.72934944 54.8125 50.75 C57.43947295 50.77815481 60.06642756 50.80808153 62.69335938 50.83984375 C69.12908805 50.91711316 75.56356959 50.9575853 82 51 C82 59.25 82 67.5 82 76 C12.7 76 -56.6 76 -128 76 C-128 67.75 -128 59.5 -128 51 C-124.09929687 50.96261719 -120.19859375 50.92523438 -116.1796875 50.88671875 C-112.39675324 50.84049168 -108.61391746 50.78926212 -104.83105469 50.73754883 C-102.20448809 50.70431962 -99.57785043 50.6762815 -96.95117188 50.65356445 C-93.17286939 50.61998272 -89.39521695 50.56766247 -85.6171875 50.51171875 C-84.44509735 50.50532883 -83.2730072 50.4989389 -82.06539917 50.49235535 C-74.11049271 50.37081721 -74.11049271 50.37081721 -67 47 C-63.65545681 42.9995227 -63.38905601 38.71428045 -63 33.6875 C-61.98850755 20.82545391 -57.12023262 10.97320424 -47.2578125 2.50390625 C-32.95895846 -9.00982963 -15.5515875 -9.18957443 0 0 Z " fill="#FEE085" transform="translate(279,35)"/>
<path d="M0 0 C0.96621529 -0.0098568 0.96621529 -0.0098568 1.95195007 -0.01991272 C4.08743404 -0.03965031 6.22284758 -0.05131067 8.35839844 -0.0612793 C9.45318638 -0.06739259 9.45318638 -0.06739259 10.57009125 -0.07362938 C14.43490822 -0.09449444 18.29968966 -0.1087929 22.16455078 -0.11816406 C26.15044113 -0.12921542 30.13577118 -0.16359857 34.12146378 -0.20333576 C37.19105035 -0.22952661 40.26050409 -0.23785816 43.33019257 -0.24144554 C44.7989657 -0.24630703 46.26773307 -0.25790867 47.73639679 -0.27648354 C49.79736695 -0.30092432 51.85689699 -0.29990195 53.91796875 -0.29296875 C55.08886047 -0.29883499 56.2597522 -0.30470123 57.46612549 -0.31074524 C62.46060467 0.43842664 66.5096031 3.29342733 69.71777344 7.17700195 C71.59442335 12.80695168 71.65526494 18.26729703 69.03027344 23.61450195 C65.19363881 27.86590789 61.27819863 29.97799127 55.56634521 30.29725647 C54.79357239 30.29503586 54.02079956 30.29281525 53.22460938 30.29052734 C51.90369293 30.29041405 51.90369293 30.29041405 50.55609131 30.29029846 C49.61429016 30.28513718 48.67248901 30.27997589 47.70214844 30.2746582 C46.24569916 30.27253578 46.24569916 30.27253578 44.75982666 30.27037048 C41.66244408 30.26477858 38.56513412 30.25222754 35.46777344 30.23950195 C33.36621198 30.23448591 31.26464939 30.22992318 29.16308594 30.22583008 C24.01462051 30.2148118 18.86620928 30.1975527 13.71777344 30.17700195 C13.71777344 35.78700195 13.71777344 41.39700195 13.71777344 47.17700195 C15.70756226 47.15343628 15.70756226 47.15343628 17.73754883 47.12939453 C22.67807906 47.07492869 27.61858294 47.04059123 32.55932617 47.01220703 C34.69413726 46.99715834 36.82891763 46.97671459 38.96362305 46.95068359 C42.03930258 46.91412809 45.11457188 46.89723606 48.19042969 46.8840332 C49.13862076 46.86854935 50.08681183 46.85306549 51.06373596 46.83711243 C56.73716733 46.83568467 60.71592954 47.43086756 65.71777344 50.17700195 C70.26472321 55.08292144 71.01705621 58.18377693 70.93261719 64.7043457 C70.53012203 69.33669908 68.54854722 71.44754205 65.15527344 74.42700195 C61.31775602 77.18214266 59.24344412 77.31013207 54.52734375 77.33813477 C52.57456512 77.35254608 52.57456512 77.35254608 50.58233643 77.36724854 C49.15352554 77.37209727 47.72471263 77.37637591 46.29589844 77.38012695 C44.83339435 77.38587946 43.37089028 77.39163718 41.90838623 77.3973999 C38.83833464 77.40791276 35.76830925 77.41375303 32.69824219 77.41723633 C28.77298609 77.42271088 24.84807866 77.44671507 20.92293167 77.47520828 C17.89966845 77.4938788 14.8764883 77.49904268 11.8531723 77.5005722 C10.40674694 77.50359112 8.96032278 77.51159393 7.51395416 77.52475739 C5.48463355 77.54190247 3.455169 77.53808064 1.42578125 77.53344727 C0.27265442 77.5370929 -0.88047241 77.54073853 -2.06854248 77.54449463 C-6.99919098 76.98066285 -10.23939645 75.30438586 -13.59472656 71.67700195 C-16.08478808 67.98802193 -16.41219806 65.22891998 -16.44335938 60.8828125 C-16.45777069 59.26048958 -16.45777069 59.26048958 -16.47247314 57.60539246 C-16.47672302 56.43664078 -16.4809729 55.2678891 -16.48535156 54.0637207 C-16.49105164 52.86141312 -16.49675171 51.65910553 -16.50262451 50.42036438 C-16.51207732 47.87416464 -16.5186096 45.32795265 -16.52246094 42.78173828 C-16.53216178 38.89048862 -16.56318156 34.99976813 -16.59472656 31.10864258 C-16.60125711 28.63533842 -16.60650738 26.16203049 -16.61035156 23.6887207 C-16.62269836 22.52604172 -16.63504517 21.36336273 -16.64776611 20.16545105 C-16.61976489 9.98601898 -16.61976489 9.98601898 -13.28222656 5.17700195 C-8.65362937 0.99997522 -6.17049806 0.05201951 0 0 Z " fill="#FFC61B" transform="translate(319.2822265625,372.822998046875)"/>
<path d="M0 0 C1.28175613 -0.00960754 2.56351227 -0.01921509 3.8841095 -0.02911377 C5.2856122 -0.03396219 6.68711698 -0.03824091 8.08862305 -0.04199219 C9.52727764 -0.04774654 10.96593222 -0.05350424 12.40458679 -0.05926514 C15.42158362 -0.06976757 18.43855387 -0.07561499 21.45556641 -0.07910156 C25.31241496 -0.08458062 29.16890948 -0.10859887 33.02564716 -0.13707352 C35.9982962 -0.15574336 38.97086076 -0.16090783 41.94356346 -0.16243744 C43.36486939 -0.16545539 44.78617413 -0.17345492 46.20742226 -0.18662262 C48.20070986 -0.20376994 50.19414403 -0.19994555 52.1875 -0.1953125 C53.31984573 -0.19895813 54.45219147 -0.20260376 55.61885071 -0.20635986 C60.55695277 0.36628812 63.78422947 2.04902186 67.1003418 5.72363281 C70.36458331 10.43864833 70.4204251 14.5198762 69.7878418 20.16113281 C67.77579907 24.1133596 65.61499809 26.88875877 61.7878418 29.16113281 C58.86823967 30.061774 56.25014611 30.28321794 53.20288086 30.2746582 C52.30224915 30.27458267 51.40161743 30.27450714 50.47369385 30.27442932 C49.51001892 30.26926804 48.54634399 30.26410675 47.5534668 30.25878906 C46.56030457 30.25737411 45.56714233 30.25595917 44.54388428 30.25450134 C41.37517267 30.24890869 38.20653201 30.23635751 35.0378418 30.22363281 C32.88810323 30.21861686 30.73836356 30.21405412 28.58862305 30.20996094 C23.32166868 30.19894166 18.05476726 30.18168204 12.7878418 30.16113281 C12.7878418 35.77113281 12.7878418 41.38113281 12.7878418 47.16113281 C14.04330811 47.14542236 15.29877441 47.12971191 16.59228516 47.11352539 C21.28313698 47.0589215 25.97396111 47.0246725 30.66503906 46.99633789 C32.68917578 46.98132036 34.71328035 46.9609002 36.73730469 46.93481445 C39.65917941 46.89812014 42.58062115 46.88133573 45.50268555 46.86816406 C46.39680649 46.85268021 47.29092743 46.83719635 48.21214294 46.82124329 C54.11509086 46.81968836 59.42245012 47.56380864 64.7878418 50.16113281 C68.50428066 53.97048265 69.94235293 56.65924533 70.0378418 61.91113281 C69.9664542 66.41504106 69.53252881 69.4425246 66.7878418 73.16113281 C60.15380502 78.44463249 52.7445061 77.74443417 44.65893555 77.69238281 C43.18115484 77.69508116 41.70337587 77.69896643 40.2256012 77.70397949 C37.13818348 77.7098567 34.05123061 77.70136859 30.96386719 77.68261719 C27.01723276 77.6598078 23.07168537 77.67297335 19.1250906 77.69690704 C16.07688785 77.7113966 13.02894072 77.70674511 9.98073006 77.69639587 C8.52594942 77.69373831 7.07114515 77.69696407 5.61639214 77.70631409 C3.58036653 77.71653208 1.54425891 77.69818285 -0.49169922 77.67871094 C-2.22541527 77.67393738 -2.22541527 77.67393738 -3.99415588 77.66906738 C-8.73490119 76.92078065 -11.88612378 74.67006853 -15.0246582 71.09863281 C-17.13444165 67.65635456 -17.34501843 64.81015565 -17.37329102 60.86694336 C-17.38770233 59.24462044 -17.38770233 59.24462044 -17.40240479 57.58952332 C-17.40665466 56.42077164 -17.41090454 55.25201996 -17.4152832 54.04785156 C-17.42098328 52.84554398 -17.42668335 51.64323639 -17.43255615 50.40449524 C-17.44200896 47.8582955 -17.44854124 45.31208351 -17.45239258 42.76586914 C-17.46209342 38.87461948 -17.4931132 34.98389899 -17.5246582 31.09277344 C-17.53118875 28.61946928 -17.53643902 26.14616135 -17.5402832 23.67285156 C-17.55263 22.51017258 -17.56497681 21.34749359 -17.57769775 20.14958191 C-17.54972824 9.98167987 -17.54972824 9.98167987 -14.2121582 5.16113281 C-9.55262548 0.85106504 -6.23629997 0.03768409 0 0 Z " fill="#FFC61B" transform="translate(320.212158203125,166.8388671875)"/>
<path d="M0 0 C1.30185242 -0.00960754 2.60370483 -0.01921509 3.94500732 -0.02911377 C5.37381821 -0.03396251 6.80263112 -0.03824115 8.23144531 -0.04199219 C9.6939494 -0.04774469 11.15645347 -0.05350241 12.61895752 -0.05926514 C15.68900911 -0.069778 18.7590345 -0.07561827 21.82910156 -0.07910156 C25.75435766 -0.08457612 29.67926509 -0.1085803 33.60441208 -0.13707352 C36.6276753 -0.15574403 39.65085545 -0.16090791 42.67417145 -0.16243744 C44.12059681 -0.16545636 45.56702097 -0.17345916 47.01338959 -0.18662262 C49.0427102 -0.20376771 51.07217475 -0.19994588 53.1015625 -0.1953125 C54.25468933 -0.19895813 55.40781616 -0.20260376 56.59588623 -0.20635986 C61.52653473 0.35747191 64.7667402 2.0337489 68.12207031 5.66113281 C71.0079166 9.93646065 71.47591164 14.11729914 70.80957031 19.16113281 C69.43797532 22.92556473 67.54783355 25.60743539 64.30957031 28.03613281 C60.54108276 29.73195221 57.34671165 30.28623714 53.22460938 30.2746582 C52.32397766 30.27458267 51.42334595 30.27450714 50.49542236 30.27442932 C49.53174744 30.26926804 48.56807251 30.26410675 47.57519531 30.25878906 C46.58203308 30.25737411 45.58887085 30.25595917 44.56561279 30.25450134 C41.39690119 30.24890869 38.22826052 30.23635751 35.05957031 30.22363281 C32.90983175 30.21861686 30.76009208 30.21405412 28.61035156 30.20996094 C23.34339719 30.19894166 18.07649578 30.18168204 12.80957031 30.16113281 C12.80957031 35.77113281 12.80957031 41.38113281 12.80957031 47.16113281 C14.10580322 47.15065918 15.40203613 47.14018555 16.73754883 47.12939453 C21.56629656 47.09307772 26.39503231 47.07018985 31.22387695 47.05126953 C33.31016066 47.04123854 35.3964304 47.02761055 37.48266602 47.01025391 C40.48880469 46.98587787 43.49475676 46.97462046 46.50097656 46.96582031 C47.42729385 46.95549774 48.35361115 46.94517517 49.30799866 46.93453979 C55.89037963 46.93341035 61.40044525 47.12676054 66.62207031 51.53613281 C70.19332517 55.82163865 71.2304299 58.39254183 71.05957031 64.13769531 C70.49785377 68.68408862 68.58378873 71.4624479 65.24707031 74.47363281 C61.37207813 77.15631971 59.2436041 77.298375 54.52734375 77.33813477 C53.88320023 77.34470596 53.2390567 77.35127716 52.57539368 77.35804749 C50.43990971 77.37778508 48.30449617 77.38944544 46.16894531 77.39941406 C45.43908669 77.40348959 44.70922806 77.40756512 43.9572525 77.41176414 C40.09243553 77.4326292 36.22765409 77.44692766 32.36279297 77.45629883 C28.37690262 77.46735019 24.39157257 77.50173334 20.40587997 77.54147053 C17.3362934 77.56766137 14.26683966 77.57599292 11.19715118 77.57958031 C9.72837805 77.58444179 8.25961068 77.59604344 6.79094696 77.6146183 C4.7299768 77.63905909 2.67044676 77.63803671 0.609375 77.63110352 C-0.56151672 77.63696976 -1.73240845 77.642836 -2.93878174 77.64888 C-7.93326092 76.89970813 -11.98225935 74.04470743 -15.19042969 70.16113281 C-16.2207189 67.07026516 -16.32923172 64.90804601 -16.3515625 61.66748047 C-16.36117004 60.54266266 -16.37077759 59.41784485 -16.38067627 58.25894165 C-16.38492615 57.04330536 -16.38917603 55.82766907 -16.39355469 54.57519531 C-16.39925476 53.32612396 -16.40495483 52.07705261 -16.41082764 50.79013062 C-16.42028067 48.14553178 -16.42717607 45.50104651 -16.43066406 42.85644531 C-16.43614669 39.47478196 -16.46017424 36.09352167 -16.48863602 32.71198463 C-16.5117866 29.47891885 -16.51371353 26.24583238 -16.51855469 23.01269531 C-16.53090149 21.80110748 -16.54324829 20.58951965 -16.55596924 19.34121704 C-16.55296814 18.21009491 -16.54996704 17.07897278 -16.546875 15.91357422 C-16.55052063 14.92112701 -16.55416626 13.92867981 -16.55792236 12.90615845 C-15.95536065 8.40525963 -13.9862942 5.85994067 -10.62792969 2.91113281 C-6.79041227 0.1559921 -4.71610037 0.0280027 0 0 Z " fill="#FFC61B" transform="translate(138.1904296875,269.8388671875)"/>
<path d="M0 0 C31.02 0 62.04 0 94 0 C94 6.27 94 12.54 94 19 C62.98 19 31.96 19 0 19 C0 12.73 0 6.46 0 0 Z " fill="#FEE084" transform="translate(151,402)"/>
<path d="M0 0 C31.02 0 62.04 0 94 0 C94 6.27 94 12.54 94 19 C62.98 19 31.96 19 0 19 C0 12.73 0 6.46 0 0 Z " fill="#FEE084" transform="translate(267,299)"/>
<path d="M0 0 C31.02 0 62.04 0 94 0 C94 6.27 94 12.54 94 19 C62.98 19 31.96 19 0 19 C0 12.73 0 6.46 0 0 Z " fill="#FEE084" transform="translate(151,196)"/>
</svg>
